<?xml version="1.0" encoding="utf-8"?>
<!-- Generator: Adobe Illustrator 19.2.1, SVG Export Plug-In . SVG Version: 6.00 Build 0)  -->
<svg version="1.1" id="Layer_1" xmlns="http://www.w3.org/2000/svg" xmlns:xlink="http://www.w3.org/1999/xlink" x="0px" y="0px"
	 viewBox="0 0 800 800" style="enable-background:new 0 0 800 800;" xml:space="preserve">
<style type="text/css">
	.st0{fill:#FFFFFF;}
	.st1{fill:url(#SVGID_1_);}
	.st2{fill:url(#SVGID_2_);}
	.st3{fill:url(#SVGID_3_);}
	.st4{fill:url(#SVGID_4_);}
	.st5{fill:url(#SVGID_5_);}
	.st6{fill:url(#SVGID_6_);}
	.st7{fill:url(#SVGID_7_);}
	.st8{fill:url(#SVGID_8_);}
	.st9{fill:url(#SVGID_9_);}
	.st10{fill:url(#SVGID_10_);}
	.st11{fill:url(#SVGID_11_);}
	.st12{fill:url(#SVGID_12_);}
	.st13{fill:url(#SVGID_13_);}
	.st14{fill:url(#SVGID_14_);}
	.st15{fill:url(#SVGID_15_);}
	.st16{fill:url(#SVGID_16_);}
	.st17{fill:url(#SVGID_17_);}
	.st18{fill:url(#SVGID_18_);}
	.st19{fill:url(#SVGID_19_);}
	.st20{fill:url(#SVGID_20_);}
	.st21{fill:url(#SVGID_21_);}
	.st22{fill:url(#SVGID_22_);}
	.st23{fill:url(#SVGID_23_);}
	.st24{fill:url(#SVGID_24_);}
	.st25{fill:url(#SVGID_25_);}
	.st26{fill:url(#SVGID_26_);}
	.st27{fill:url(#SVGID_27_);}
	.st28{fill:url(#SVGID_28_);}
	.st29{fill:url(#SVGID_29_);}
	.st30{fill:url(#SVGID_30_);}
	.st31{fill:url(#SVGID_31_);}
	.st32{fill:url(#SVGID_32_);}
	.st33{fill:url(#SVGID_33_);}
	.st34{fill:url(#SVGID_34_);}
	.st35{fill:url(#SVGID_35_);}
	.st36{fill:url(#SVGID_36_);}
	.st37{fill:url(#SVGID_37_);}
	.st38{fill:url(#SVGID_38_);}
	.st39{fill:url(#SVGID_39_);}
	.st40{fill:url(#SVGID_40_);}
	.st41{fill:url(#SVGID_41_);}
	.st42{fill:url(#SVGID_42_);}
	.st43{fill:url(#SVGID_43_);}
	.st44{fill:url(#SVGID_44_);}
	.st45{fill:url(#SVGID_45_);}
	.st46{fill:url(#SVGID_46_);}
	.st47{fill:url(#SVGID_47_);}
	.st48{fill:url(#SVGID_48_);}
	.st49{fill:url(#SVGID_49_);}
	.st50{fill:url(#SVGID_50_);}
	.st51{fill:url(#SVGID_51_);}
	.st52{fill:url(#SVGID_52_);}
	.st53{fill:url(#SVGID_53_);}
	.st54{fill:url(#SVGID_54_);}
	.st55{fill:url(#SVGID_55_);}
	.st56{fill:url(#SVGID_56_);}
	.st57{fill:url(#SVGID_57_);}
	.st58{fill:url(#SVGID_58_);}
	.st59{fill:url(#SVGID_59_);}
	.st60{fill:url(#SVGID_60_);}
	.st61{fill:url(#SVGID_61_);}
	.st62{fill:url(#SVGID_62_);}
	.st63{fill:url(#SVGID_63_);}
	.st64{fill:url(#SVGID_64_);}
	.st65{fill:url(#SVGID_65_);}
	.st66{fill:url(#SVGID_66_);}
	.st67{fill:url(#SVGID_67_);}
	.st68{fill:url(#SVGID_68_);}
	.st69{fill:url(#SVGID_69_);}
	.st70{fill:url(#SVGID_70_);}
	.st71{fill:url(#SVGID_71_);}
	.st72{fill:url(#SVGID_72_);}
	.st73{fill:url(#SVGID_73_);}
	.st74{fill:url(#SVGID_74_);}
	.st75{fill:url(#SVGID_75_);}
	.st76{fill:url(#SVGID_76_);}
	.st77{fill:url(#SVGID_77_);}
	.st78{fill:url(#SVGID_78_);}
	.st79{fill:url(#SVGID_79_);}
	.st80{fill:url(#SVGID_80_);}
	.st81{fill:url(#SVGID_81_);}
	.st82{fill:url(#SVGID_82_);}
	.st83{fill:url(#SVGID_83_);}
	.st84{fill:url(#SVGID_84_);}
	.st85{fill:url(#SVGID_85_);}
	.st86{fill:url(#SVGID_86_);}
	.st87{fill:url(#SVGID_87_);}
	.st88{fill:url(#SVGID_88_);}
	.st89{fill:url(#SVGID_89_);}
	.st90{fill:url(#SVGID_90_);}
	.st91{fill:url(#SVGID_91_);}
	.st92{fill:url(#SVGID_92_);}
	.st93{fill:url(#SVGID_93_);}
	.st94{fill:url(#SVGID_94_);}
	.st95{fill:url(#SVGID_95_);}
	.st96{fill:url(#SVGID_96_);}
	.st97{fill:url(#SVGID_97_);}
	.st98{fill:url(#SVGID_98_);}
	.st99{fill:url(#SVGID_99_);}
	.st100{fill:url(#SVGID_100_);}
	.st101{fill:url(#SVGID_101_);}
	.st102{fill:url(#SVGID_102_);}
	.st103{fill:url(#SVGID_103_);}
	.st104{fill:url(#SVGID_104_);}
	.st105{fill:url(#SVGID_105_);}
	.st106{fill:url(#SVGID_106_);}
	.st107{fill:url(#SVGID_107_);}
	.st108{fill:url(#SVGID_108_);}
	.st109{fill:url(#SVGID_109_);}
	.st110{fill:url(#SVGID_110_);}
	.st111{fill:url(#SVGID_111_);}
	.st112{fill:url(#SVGID_112_);}
	.st113{fill:url(#SVGID_113_);}
	.st114{fill:url(#SVGID_114_);}
	.st115{fill:url(#SVGID_115_);}
	.st116{fill:url(#SVGID_116_);}
	.st117{fill:url(#SVGID_117_);}
	.st118{fill:url(#SVGID_118_);}
	.st119{fill:url(#SVGID_119_);}
	.st120{fill:url(#SVGID_120_);}
	.st121{fill:url(#SVGID_121_);}
	.st122{fill:url(#SVGID_122_);}
	.st123{fill:url(#SVGID_123_);}
	.st124{fill:url(#SVGID_124_);}
	.st125{fill:url(#SVGID_125_);}
	.st126{fill:url(#SVGID_126_);}
</style>

<g id="circle">
	<g>
		<g>

			<path class="st0" d="M711.8,336.1c0,13.2,10.7,23.9,23.9,23.9c13.2,0,23.9-10.7,23.9-23.9c0-13.2-10.7-23.9-23.9-23.9
				C722.4,312.3,711.8,322.9,711.8,336.1z"/>
			<path class="st0" d="M691.6,269.4c0,13.2,10.7,23.8,23.9,23.8c13.2,0,23.8-10.7,23.8-23.8c0-13.2-10.7-23.9-23.8-23.9
				C702.3,245.5,691.6,256.2,691.6,269.4z"/>
			<path class="st0" d="M682.4,231.9c13.2,0,23.9-10.7,23.9-23.9c0-13.2-10.7-23.8-23.9-23.8c-13.2,0-23.9,10.7-23.9,23.8
				C658.6,221.2,669.3,231.9,682.4,231.9z"/>
			<path class="st0" d="M637.8,178.5c13.2,0,23.9-10.7,23.9-23.9c0-13.2-10.7-23.9-23.9-23.9c-13.2,0-23.9,10.7-23.9,23.9
				C614,167.8,624.6,178.5,637.8,178.5z"/>
			<path class="st0" d="M583.4,135c13.2,0,23.8-10.7,23.8-23.9c0-13.2-10.7-23.8-23.8-23.8c-13.2,0-23.9,10.7-23.9,23.8
				C559.5,124.4,570.2,135,583.4,135z"/>
			<path class="st0" d="M521.3,103.5c13.2,0,23.8-10.7,23.8-23.9c0-13.2-10.7-23.9-23.8-23.9c-13.2,0-23.9,10.7-23.9,23.9
				C497.5,92.8,508.2,103.5,521.3,103.5z"/>
			<path class="st0" d="M454.2,84.9c13.2,0,23.9-10.7,23.9-23.8s-10.7-23.9-23.9-23.9c-13.2,0-23.8,10.7-23.8,23.9
				S441,84.9,454.2,84.9z"/>
			<path class="st0" d="M384.6,79.9c13.2,0,23.8-10.7,23.8-23.8c0-13.2-10.7-23.9-23.8-23.9s-23.9,10.7-23.9,23.9
				C360.8,69.3,371.5,79.9,384.6,79.9z"/>
			<path class="st0" d="M315.2,88.7c13.2,0,23.9-10.7,23.9-23.8c0-13.2-10.7-23.9-23.9-23.9c-13.2,0-23.8,10.7-23.8,23.9
				C291.4,78,302.1,88.7,315.2,88.7z"/>
			<path class="st0" d="M249.3,112.3c13.2,0,23.9-10.7,23.9-23.8c0-13.2-10.7-23.9-23.9-23.9c-13.2,0-23.8,10.7-23.8,23.9
				C225.4,101.6,236.1,112.3,249.3,112.3z"/>
			<path class="st0" d="M189.8,149.1c13.2,0,23.9-10.7,23.9-23.9c0-13.2-10.7-23.9-23.9-23.9c-13.2,0-23.8,10.7-23.8,23.9
				C166,138.4,176.6,149.1,189.8,149.1z"/>
			<path class="st0" d="M139,197c13.2,0,23.8-10.7,23.8-23.9c0-13.2-10.7-23.8-23.8-23.8c-13.2,0-23.9,10.7-23.9,23.8
				C115.1,186.3,125.8,197,139,197z"/>
			<path class="st0" d="M98.8,254c13.2,0,23.8-10.7,23.8-23.9c0-13.2-10.7-23.9-23.8-23.9S75,217,75,230.2
				C75,243.4,85.6,254,98.8,254z"/>
			<path class="st0" d="M71,317.9c13.2,0,23.8-10.7,23.8-23.9c0-13.2-10.7-23.9-23.8-23.9c-13.2,0-23.9,10.7-23.9,23.9
				C47.2,307.3,57.8,317.9,71,317.9z"/>
			<path class="st0" d="M56.7,386c13.2,0,23.9-10.7,23.9-23.8c0-13.2-10.7-23.9-23.9-23.9c-13.2,0-23.8,10.7-23.8,23.9
				C32.9,375.4,43.5,386,56.7,386z"/>
			<path class="st0" d="M79.9,431.8c0-13.2-10.7-23.9-23.9-23.9c-13.2,0-23.9,10.7-23.9,23.9c0,13.2,10.7,23.9,23.9,23.9
				C69.2,455.6,79.9,444.9,79.9,431.8z"/>
			<path class="st0" d="M92.9,500.2c0-13.2-10.7-23.8-23.9-23.8c-13.2,0-23.9,10.7-23.9,23.8c0,13.2,10.7,23.9,23.9,23.9
				C82.2,524,92.9,513.3,92.9,500.2z"/>
			<path class="st0" d="M119.5,564.7c0-13.2-10.7-23.9-23.9-23.9c-13.2,0-23.9,10.7-23.9,23.9c0,13.2,10.7,23.8,23.9,23.8
				C108.8,588.5,119.5,577.8,119.5,564.7z"/>
			<path class="st0" d="M134.8,598.6c-13.2,0-23.8,10.7-23.8,23.9c0,13.2,10.7,23.8,23.8,23.8c13.2,0,23.9-10.7,23.9-23.8
				C158.7,609.3,148,598.6,134.8,598.6z"/>
			<path class="st0" d="M184.9,647.5c-13.2,0-23.8,10.7-23.8,23.9c0,13.2,10.7,23.8,23.8,23.8c13.2,0,23.8-10.7,23.8-23.8
				C208.7,658.2,198.1,647.5,184.9,647.5z"/>
			<path class="st0" d="M244,685.1c-13.2,0-23.9,10.7-23.9,23.9c0,13.2,10.7,23.9,23.9,23.9c13.2,0,23.8-10.7,23.8-23.9
				C267.8,695.7,257.2,685.1,244,685.1z"/>
			<path class="st0" d="M309.7,709.1c-13.2,0-23.8,10.7-23.8,23.9c0,13.2,10.7,23.8,23.8,23.8c13.2,0,23.9-10.7,23.9-23.8
				C333.6,719.8,322.9,709.1,309.7,709.1z"/>
			<path class="st0" d="M378.8,719.2c-13.2,0-23.8,10.7-23.8,23.9c0,13.2,10.7,23.8,23.8,23.8c13.2,0,23.9-10.7,23.9-23.8
				C402.7,729.8,392,719.2,378.8,719.2z"/>
			<path class="st0" d="M448.4,715.5c-13.2,0-23.9,10.7-23.9,23.9c0,13.2,10.7,23.9,23.9,23.9c13.2,0,23.8-10.7,23.8-23.9
				C472.3,726.2,461.6,715.5,448.4,715.5z"/>
			<path class="st0" d="M515.8,698.3c-13.2,0-23.8,10.7-23.8,23.9c0,13.2,10.7,23.9,23.8,23.9c13.2,0,23.9-10.7,23.9-23.9
				C539.7,709,529,698.3,515.8,698.3z"/>
			<path class="st0" d="M578.4,667.9c-13.2,0-23.9,10.7-23.9,23.9c0,13.2,10.7,23.8,23.9,23.8c13.2,0,23.8-10.7,23.8-23.8
				C602.3,678.5,591.6,667.9,578.4,667.9z"/>
			<path class="st0" d="M633.7,625.4c-13.2,0-23.8,10.7-23.8,23.9c0,13.2,10.7,23.9,23.8,23.9c13.2,0,23.8-10.7,23.8-23.9
				C657.5,636.1,646.8,625.4,633.7,625.4z"/>
			<path class="st0" d="M679.3,572.8c-13.2,0-23.8,10.7-23.8,23.9c0,13.2,10.7,23.9,23.8,23.9c13.2,0,23.8-10.7,23.8-23.9
				C703.2,583.5,692.5,572.8,679.3,572.8z"/>
			<path class="st0" d="M713.5,512.1c-13.2,0-23.8,10.7-23.8,23.9c0,13.2,10.7,23.8,23.8,23.8c13.2,0,23.9-10.7,23.9-23.8
				C737.4,522.7,726.7,512.1,713.5,512.1z"/>
			<path class="st0" d="M735,445.6c-13.2,0-23.9,10.7-23.9,23.9c0,13.2,10.7,23.9,23.9,23.9c13.2,0,23.8-10.7,23.8-23.9
				C758.8,456.3,748.1,445.6,735,445.6z"/>
			<path class="st0" d="M743,376c-13.2,0-23.9,10.7-23.9,23.8s10.7,23.9,23.9,23.9c13.2,0,23.8-10.7,23.8-23.9S756.1,376,743,376z"
				/>
			<path class="st0" d="M669,370.8c-1,11.1,7.1,20.9,18.2,22c11.1,1,20.9-7.1,22-18.2c1-11.1-7.1-20.9-18.2-22
				C679.9,351.5,670,359.7,669,370.8z"/>
			<path class="st0" d="M679.2,294.7c-11.1-1-20.9,7.1-22,18.2c-1,11.1,7.1,20.9,18.2,22c11.1,1,20.9-7.1,22-18.2
				C698.5,305.6,690.3,295.7,679.2,294.7z"/>
			<path class="st0" d="M656.2,240.4c-11.1-1-20.9,7.1-22,18.2c-1,11.1,7.1,20.9,18.2,22c11.1,1,20.9-7.1,22-18.2
				C675.4,251.3,667.3,241.5,656.2,240.4z"/>
			<path class="st0" d="M622.7,191.9c-11.1-1-20.9,7.1-22,18.2c-1,11.1,7.1,20.9,18.2,22c11.1,1,20.9-7.1,22-18.2
				C642,202.8,633.8,192.9,622.7,191.9z"/>
			<path class="st0" d="M576.5,191.2c11.1,1,20.9-7.1,22-18.2c1-11.1-7.1-20.9-18.2-22c-11.1-1-20.9,7.1-22,18.2
				C557.2,180.4,565.4,190.2,576.5,191.2z"/>
			<path class="st0" d="M530.5,119.5c-11.1-1-20.9,7.1-22,18.2c-1,11.1,7.1,20.9,18.2,22c11.1,1,20.9-7.1,22-18.2
				C549.7,130.4,541.5,120.6,530.5,119.5z"/>
			<path class="st0" d="M453.3,116.9c-1,11.1,7.1,20.9,18.2,22c11.1,1,20.9-7.1,22-18.2s-7.1-20.9-18.2-22
				C464.2,97.6,454.4,105.8,453.3,116.9z"/>
			<path class="st0" d="M395.1,107.2c-1,11.1,7.1,20.9,18.2,22c11.1,1,20.9-7.1,22-18.2c1-11.1-7.1-20.9-18.2-22
				C406,87.9,396.1,96.1,395.1,107.2z"/>
			<path class="st0" d="M354.1,131.1c11.1,1,20.9-7.1,22-18.2c1-11.1-7.1-20.9-18.2-22c-11.1-1-20.9,7.1-22,18.2
				C334.9,120.3,343,130.1,354.1,131.1z"/>
			<path class="st0" d="M296.7,145.8c11.1,1,20.9-7.1,22-18.2c1-11.1-7.1-20.9-18.2-22c-11.1-1-20.9,7.1-22,18.2
				C277.4,135,285.6,144.8,296.7,145.8z"/>
			<path class="st0" d="M243.7,172.2c11.1,1,20.9-7.1,22-18.2c1-11.1-7.1-20.9-18.2-22c-11.1-1-20.9,7.1-22,18.2
				C224.4,161.4,232.6,171.2,243.7,172.2z"/>
			<path class="st0" d="M200.8,168.4c-11.1-1-20.9,7.1-22,18.2c-1,11.1,7.1,20.9,18.2,22c11.1,1,20.9-7.1,22-18.2
				C220.1,179.3,211.9,169.4,200.8,168.4z"/>
			<path class="st0" d="M162.5,213.3c-11.1-1-20.9,7.1-22,18.2c-1,11.1,7.1,20.9,18.2,22c11.1,1,20.9-7.1,22-18.2
				C181.7,224.2,173.6,214.3,162.5,213.3z"/>
			<path class="st0" d="M112.1,283.2c-1,11.1,7.1,20.9,18.2,22c11.1,1,20.9-7.1,22-18.2c1-11.1-7.1-20.9-18.2-22
				C122.9,263.9,113.1,272.1,112.1,283.2z"/>
			<path class="st0" d="M94.7,339.5c-1,11.1,7.1,20.9,18.2,22c11.1,1,20.9-7.1,22-18.2c1-11.1-7.1-20.9-18.2-22
				C105.5,320.2,95.7,328.4,94.7,339.5z"/>
			<path class="st0" d="M88.6,398.1c-1,11.1,7.1,20.9,18.2,22c11.1,1,20.9-7.1,22-18.2c1-11.1-7.1-20.9-18.2-22
				C99.5,378.8,89.7,387,88.6,398.1z"/>
			<path class="st0" d="M112.5,478.8c11.1,1,20.9-7.1,22-18.2c1-11.1-7.1-20.9-18.2-22c-11.1-1-20.9,7.1-22,18.2
				C93.2,467.9,101.4,477.7,112.5,478.8z"/>
			<path class="st0" d="M129.8,535.2c11.1,1,20.9-7.1,22-18.2c1-11.1-7.1-20.9-18.2-22c-11.1-1-20.9,7.1-22,18.2
				C110.6,524.3,118.7,534.1,129.8,535.2z"/>
			<path class="st0" d="M180.3,568.8c1-11.1-7.1-20.9-18.2-22c-11.1-1-20.9,7.1-22,18.2c-1,11.1,7.1,20.9,18.2,22
				C169.4,588,179.3,579.9,180.3,568.8z"/>
			<path class="st0" d="M200.4,591.9c-11.1-1-20.9,7.1-22,18.2c-1,11.1,7.1,20.9,18.2,22c11.1,1,20.9-7.1,22-18.2
				C219.7,602.8,211.5,593,200.4,591.9z"/>
			<path class="st0" d="M243.6,668.5c11.1,1,20.9-7.1,22-18.2c1-11.1-7.1-20.9-18.2-22c-11.1-1-20.9,7.1-22,18.2
				C224.3,657.6,232.4,667.4,243.6,668.5z"/>
			<path class="st0" d="M319.1,675.6c1-11.1-7.1-20.9-18.2-22c-11.1-1-20.9,7.1-22,18.2c-1,11.1,7.1,20.9,18.2,22
				C308.2,694.9,318,686.7,319.1,675.6z"/>
			<path class="st0" d="M376.5,689.5c1-11.1-7.1-20.9-18.2-22c-11.1-1-20.9,7.1-22,18.2c-1,11.1,7.1,20.9,18.2,22
				C365.6,708.8,375.5,700.6,376.5,689.5z"/>
			<path class="st0" d="M435.4,691.9c1-11.1-7.1-20.9-18.2-22c-11.1-1-20.9,7.1-22,18.2c-1,11.1,7.1,20.9,18.2,22
				C424.6,711.2,434.4,703,435.4,691.9z"/>
			<path class="st0" d="M475.4,660.7c-11.1-1-20.9,7.1-22,18.2c-1,11.1,7.1,20.9,18.2,22c11.1,1,20.9-7.1,22-18.2
				C494.7,671.6,486.5,661.7,475.4,660.7z"/>
			<path class="st0" d="M530.6,640c-11.1-1-20.9,7.1-22,18.2c-1,11.1,7.1,20.9,18.2,22c11.1,1,20.9-7.1,22-18.2
				C549.8,650.8,541.7,641,530.6,640z"/>
			<path class="st0" d="M580.5,608.6c-11.1-1-20.9,7.1-22,18.2s7.1,20.9,18.2,22c11.1,1,20.9-7.1,22-18.2
				C599.7,619.4,591.6,609.6,580.5,608.6z"/>
			<path class="st0" d="M641.3,589.7c1-11.1-7.1-20.9-18.2-22c-11.1-1-20.9,7.1-22,18.2c-1,11.1,7.1,20.9,18.2,22
				C630.4,609,640.2,600.8,641.3,589.7z"/>
			<path class="st0" d="M652.9,559.5c11.1,1,20.9-7.1,22-18.2c1-11.1-7.1-20.9-18.2-22c-11.1-1-20.9,7.1-22,18.2
				C633.7,548.6,641.8,558.4,652.9,559.5z"/>
			<path class="st0" d="M698.2,486.9c1-11.1-7.1-20.9-18.2-22c-11.1-1-20.9,7.1-22,18.2c-1,11.1,7.1,20.9,18.2,22
				C687.3,506.1,697.1,498,698.2,486.9z"/>
			<path class="st0" d="M710.4,428.9c1-11.1-7.1-20.9-18.2-22c-11.1-1-20.9,7.1-22,18.2c-1,11.1,7.1,20.9,18.2,22
				C699.5,448.1,709.4,440,710.4,428.9z"/>
			<path class="st0" d="M632.1,370.5c9.1-0.1,16.5-7.5,16.4-16.6c-0.1-9.1-7.5-16.5-16.6-16.4c-9.1,0.1-16.5,7.5-16.4,16.6
				C615.5,363.2,622.9,370.5,632.1,370.5z"/>
			<path class="st0" d="M617.8,324.3c9.1-0.1,16.5-7.5,16.4-16.6c-0.1-9.1-7.5-16.5-16.6-16.4c-9.1,0.1-16.5,7.5-16.4,16.6
				C601.2,317,608.7,324.4,617.8,324.3z"/>
			<path class="st0" d="M578,265.6c0.1,9.1,7.5,16.5,16.6,16.4c9.1-0.1,16.5-7.5,16.4-16.6c-0.1-9.1-7.5-16.5-16.6-16.4
				C585.3,249,577.9,256.5,578,265.6z"/>
			<path class="st0" d="M563.4,245.2c9.1-0.1,16.5-7.5,16.4-16.6c-0.1-9.1-7.5-16.5-16.6-16.4c-9.1,0.1-16.5,7.5-16.4,16.6
				C546.9,237.9,554.3,245.3,563.4,245.2z"/>
			<path class="st0" d="M525.3,182.3c-9.1,0.1-16.5,7.5-16.4,16.6c0.1,9.1,7.5,16.5,16.6,16.4c9.1-0.1,16.5-7.5,16.4-16.6
				C541.9,189.6,534.4,182.3,525.3,182.3z"/>
			<path class="st0" d="M465.8,177.4c0.1,9.1,7.5,16.5,16.6,16.4c9.1-0.1,16.5-7.5,16.4-16.6c-0.1-9.1-7.5-16.5-16.6-16.4
				C473.1,160.8,465.7,168.3,465.8,177.4z"/>
			<path class="st0" d="M435.6,148.3c-9.1,0.1-16.5,7.5-16.4,16.6c0.1,9.1,7.5,16.5,16.6,16.4c9.1-0.1,16.5-7.5,16.4-16.6
				C452.2,155.5,444.7,148.2,435.6,148.3z"/>
			<path class="st0" d="M387.4,145.1c-9.1,0.1-16.5,7.5-16.4,16.6c0.1,9.1,7.5,16.5,16.6,16.4c9.1-0.1,16.5-7.5,16.4-16.6
				C404,152.4,396.5,145,387.4,145.1z"/>
			<path class="st0" d="M339.4,151.5c-9.1,0.1-16.5,7.5-16.4,16.6c0.1,9.1,7.5,16.5,16.6,16.4c9.1-0.1,16.5-7.5,16.4-16.6
				C355.9,158.8,348.5,151.5,339.4,151.5z"/>
			<path class="st0" d="M294,201.2c9.1-0.1,16.5-7.5,16.4-16.6c-0.1-9.1-7.5-16.5-16.6-16.4c-9.1,0.1-16.5,7.5-16.4,16.6
				C277.4,193.9,284.9,201.3,294,201.2z"/>
			<path class="st0" d="M252.8,194c-9.1,0.1-16.5,7.5-16.4,16.6c0.1,9.1,7.5,16.5,16.6,16.4c9.1-0.1,16.5-7.5,16.4-16.6
				C269.4,201.2,261.9,193.9,252.8,194z"/>
			<path class="st0" d="M217.8,227.4c-9.1,0.1-16.5,7.5-16.4,16.6c0.1,9.1,7.5,16.5,16.6,16.4c9.1-0.1,16.5-7.5,16.4-16.6
				C234.4,234.7,226.9,227.3,217.8,227.4z"/>
			<path class="st0" d="M173.8,283.7c0.1,9.1,7.5,16.5,16.6,16.4c9.1-0.1,16.5-7.5,16.4-16.6c-0.1-9.1-7.5-16.5-16.6-16.4
				C181.1,267.1,173.8,274.6,173.8,283.7z"/>
			<path class="st0" d="M187.9,327.8c-0.1-9.1-7.5-16.5-16.6-16.4c-9.1,0.1-16.5,7.5-16.4,16.6c0.1,9.1,7.5,16.5,16.6,16.4
				C180.6,344.4,188,337,187.9,327.8z"/>
			<path class="st0" d="M145.3,375.3c0.1,9.1,7.5,16.5,16.6,16.4c9.1-0.1,16.5-7.5,16.4-16.6c-0.1-9.1-7.5-16.5-16.6-16.4
				C152.6,358.7,145.2,366.2,145.3,375.3z"/>
			<path class="st0" d="M178.2,423.3c-0.1-9.1-7.5-16.5-16.6-16.4c-9.1,0.1-16.5,7.5-16.4,16.6c0.1,9.1,7.5,16.5,16.6,16.4
				C170.9,439.9,178.3,432.4,178.2,423.3z"/>
			<path class="st0" d="M171.1,487.3c9.1-0.1,16.5-7.5,16.4-16.6c-0.1-9.1-7.5-16.5-16.6-16.4c-9.1,0.1-16.5,7.5-16.4,16.6
				C154.6,480,162,487.3,171.1,487.3z"/>
			<path class="st0" d="M189.9,531.8c9.1-0.1,16.5-7.5,16.4-16.6c-0.1-9.1-7.5-16.5-16.6-16.4c-9.1,0.1-16.5,7.5-16.4,16.6
				C173.3,524.5,180.7,531.8,189.9,531.8z"/>
			<path class="st0" d="M217,538.6c-9.1,0.1-16.5,7.5-16.4,16.6c0.1,9.1,7.5,16.5,16.6,16.4c9.1-0.1,16.5-7.5,16.4-16.6
				C233.6,545.9,226.2,538.5,217,538.6z"/>
			<path class="st0" d="M251.9,572.2c-9.1,0.1-16.5,7.5-16.4,16.6c0.1,9.1,7.5,16.5,16.6,16.4c9.1-0.1,16.5-7.5,16.4-16.6
				C268.5,579.5,261.1,572.2,251.9,572.2z"/>
			<path class="st0" d="M293.3,631c9.1-0.1,16.5-7.5,16.4-16.6c-0.1-9.1-7.5-16.5-16.6-16.4c-9.1,0.1-16.5,7.5-16.4,16.6
				C276.7,623.7,284.1,631.1,293.3,631z"/>
			<path class="st0" d="M338.9,647.3c9.1-0.1,16.5-7.5,16.4-16.6c-0.1-9.1-7.5-16.5-16.6-16.4c-9.1,0.1-16.5,7.5-16.4,16.6
				C322.4,640,329.8,647.4,338.9,647.3z"/>
			<path class="st0" d="M386.8,654c9.1-0.1,16.5-7.5,16.4-16.6c-0.1-9.1-7.5-16.5-16.6-16.4c-9.1,0.1-16.5,7.5-16.4,16.6
				C370.3,646.7,377.7,654.1,386.8,654z"/>
			<path class="st0" d="M435,651.1c9.1-0.1,16.5-7.5,16.4-16.6c-0.1-9.1-7.5-16.5-16.6-16.4c-9.1,0.1-16.5,7.5-16.4,16.6
				C418.4,643.8,425.9,651.2,435,651.1z"/>
			<path class="st0" d="M481.6,638.9c9.1-0.1,16.5-7.5,16.4-16.6c-0.1-9.1-7.5-16.5-16.6-16.4c-9.1,0.1-16.5,7.5-16.4,16.6
				C465.1,631.6,472.5,639,481.6,638.9z"/>
			<path class="st0" d="M524.9,617.5c9.1-0.1,16.5-7.5,16.4-16.6c-0.1-9.1-7.5-16.5-16.6-16.4c-9.1,0.1-16.5,7.5-16.4,16.6
				C508.3,610.2,515.7,617.6,524.9,617.5z"/>
			<path class="st0" d="M579.3,571.3c-0.1-9.1-7.5-16.5-16.6-16.4c-9.1,0.1-16.5,7.5-16.4,16.6c0.1,9.1,7.5,16.5,16.6,16.4
				C572,587.8,579.4,580.4,579.3,571.3z"/>
			<path class="st0" d="M610.7,534.6c-0.1-9.1-7.5-16.5-16.6-16.4c-9.1,0.1-16.5,7.5-16.4,16.6c0.1,9.1,7.5,16.5,16.6,16.4
				C603.4,551.1,610.7,543.7,610.7,534.6z"/>
			<path class="st0" d="M634.1,492.3c-0.1-9.1-7.5-16.5-16.6-16.4c-9.1,0.1-16.5,7.5-16.4,16.6c0.1,9.1,7.5,16.5,16.6,16.4
				C626.8,508.9,634.2,501.5,634.1,492.3z"/>
			<path class="st0" d="M648.6,446.2c-0.1-9.1-7.5-16.5-16.6-16.4c-9.1,0.1-16.5,7.5-16.4,16.6c0.1,9.1,7.5,16.5,16.6,16.4
				C641.3,462.8,648.7,455.3,648.6,446.2z"/>
			<path class="st0" d="M637.4,414.6c9.1-0.1,16.5-7.5,16.4-16.6c-0.1-9.1-7.5-16.5-16.6-16.4c-9.1,0.1-16.5,7.5-16.4,16.6
				C620.9,407.3,628.3,414.7,637.4,414.6z"/>
			<g>
				<path class="st0" d="M577.7,379.9c-0.7,7.3,4.8,13.8,12.1,14.5c7.4,0.7,13.8-4.8,14.5-12.1c0.7-7.4-4.8-13.8-12.1-14.5
					C584.9,367.1,578.4,372.5,577.7,379.9z"/>
				<path class="st0" d="M584.3,329.5c-7.3-0.7-13.8,4.8-14.5,12.1c-0.6,7.3,4.8,13.8,12.1,14.5c7.4,0.7,13.8-4.8,14.5-12.1
					C597.1,336.7,591.7,330.2,584.3,329.5z"/>
				<path class="st0" d="M554.5,305.8c-0.7,7.4,4.8,13.8,12.1,14.5c7.3,0.7,13.8-4.8,14.5-12.1c0.7-7.4-4.8-13.8-12.1-14.5
					C561.7,293,555.2,298.5,554.5,305.8z"/>
				<path class="st0" d="M546.8,261.7c-7.3-0.7-13.8,4.8-14.5,12.1c-0.7,7.4,4.8,13.8,12.1,14.5c7.3,0.7,13.8-4.8,14.5-12.1
					C559.6,268.8,554.1,262.3,546.8,261.7z"/>
				<path class="st0" d="M516.2,261.3c7.3,0.7,13.8-4.8,14.5-12.1c0.7-7.3-4.8-13.8-12.1-14.5c-7.3-0.7-13.8,4.8-14.5,12.1
					C503.5,254.2,508.9,260.7,516.2,261.3z"/>
				<path class="st0" d="M485.6,214c-7.3-0.7-13.8,4.8-14.5,12.1c-0.7,7.3,4.8,13.8,12.1,14.5c7.3,0.7,13.8-4.8,14.5-12.1
					C498.4,221.2,493,214.7,485.6,214z"/>
				<path class="st0" d="M449.1,200.3c-7.3-0.7-13.8,4.8-14.5,12.1c-0.7,7.3,4.8,13.8,12.1,14.5c7.3,0.7,13.8-4.8,14.5-12.1
					C461.9,207.5,456.5,201,449.1,200.3z"/>
				<path class="st0" d="M396.1,206.1c-0.7,7.4,4.8,13.8,12.1,14.5c7.3,0.7,13.8-4.8,14.5-12.1c0.7-7.3-4.8-13.8-12.1-14.5
					C403.2,193.4,396.8,198.8,396.1,206.1z"/>
				<path class="st0" d="M357,207.6c-0.7,7.3,4.8,13.8,12.1,14.5c7.3,0.7,13.8-4.8,14.5-12.1c0.7-7.4-4.8-13.8-12.1-14.5
					C364.1,194.8,357.6,200.2,357,207.6z"/>
				<path class="st0" d="M331.1,231.9c7.3,0.7,13.8-4.8,14.5-12.1c0.7-7.3-4.8-13.8-12.1-14.5c-7.3-0.7-13.8,4.8-14.5,12.1
					C318.3,224.7,323.8,231.2,331.1,231.9z"/>
				<path class="st0" d="M298.5,222.8c-7.3-0.7-13.8,4.8-14.5,12.1c-0.6,7.4,4.8,13.8,12.1,14.5c7.3,0.7,13.8-4.8,14.5-12.1
					C311.3,230,305.8,223.5,298.5,222.8z"/>
				<path class="st0" d="M267.7,247c-7.3-0.7-13.8,4.8-14.5,12.1c-0.7,7.3,4.8,13.8,12.1,14.5c7.3,0.7,13.8-4.8,14.5-12.1
					C280.5,254.2,275.1,247.6,267.7,247z"/>
				<path class="st0" d="M228,288.9c-0.6,7.4,4.8,13.8,12.1,14.5c7.3,0.7,13.8-4.8,14.5-12.1c0.7-7.4-4.8-13.8-12.1-14.5
					C235.1,276.1,228.7,281.5,228,288.9z"/>
				<path class="st0" d="M223.8,311c-7.3-0.7-13.8,4.8-14.5,12.1c-0.7,7.3,4.8,13.8,12.1,14.5c7.3,0.7,13.8-4.8,14.5-12.1
					C236.6,318.1,231.1,311.7,223.8,311z"/>
				<path class="st0" d="M224.5,362.7c0.6-7.3-4.8-13.8-12.1-14.5c-7.4-0.7-13.8,4.8-14.5,12.1c-0.7,7.3,4.8,13.8,12.1,14.5
					C217.4,375.5,223.8,370.1,224.5,362.7z"/>
				<path class="st0" d="M194.1,399.1c-0.7,7.3,4.8,13.8,12.1,14.5c7.3,0.6,13.8-4.8,14.5-12.1c0.7-7.4-4.8-13.8-12.1-14.5
					C201.2,386.4,194.7,391.8,194.1,399.1z"/>
				<path class="st0" d="M210,452.4c7.3,0.6,13.8-4.8,14.5-12.1c0.7-7.4-4.8-13.8-12.1-14.5c-7.3-0.7-13.8,4.8-14.5,12.1
					C197.2,445.3,202.6,451.7,210,452.4z"/>
				<path class="st0" d="M221.6,489.7c7.3,0.7,13.8-4.8,14.5-12.1c0.7-7.4-4.8-13.8-12.1-14.5c-7.3-0.6-13.8,4.8-14.5,12.1
					C208.8,482.5,214.3,489,221.6,489.7z"/>
				<path class="st0" d="M255,511.8c0.7-7.4-4.8-13.8-12.1-14.5c-7.3-0.6-13.8,4.8-14.5,12.1c-0.6,7.4,4.8,13.8,12.1,14.5
					C247.9,524.5,254.4,519.1,255,511.8z"/>
				<path class="st0" d="M268.4,527c-7.3-0.7-13.8,4.8-14.5,12.1c-0.7,7.4,4.8,13.8,12.1,14.5c7.3,0.7,13.8-4.8,14.5-12.1
					C281.1,534.2,275.7,527.7,268.4,527z"/>
				<path class="st0" d="M297,577.5c7.3,0.7,13.8-4.8,14.5-12.1c0.7-7.4-4.7-13.8-12.1-14.5c-7.3-0.7-13.8,4.8-14.5,12.1
					C284.3,570.4,289.7,576.9,297,577.5z"/>
				<path class="st0" d="M332.5,594.2c7.4,0.7,13.8-4.8,14.5-12.1c0.7-7.4-4.8-13.8-12.1-14.5c-7.3-0.7-13.8,4.8-14.5,12.1
					C319.7,587.1,325.2,593.6,332.5,594.2z"/>
				<path class="st0" d="M370.5,603.3c7.3,0.7,13.8-4.8,14.5-12.1c0.7-7.3-4.8-13.8-12.1-14.5c-7.3-0.6-13.8,4.8-14.5,12.1
					C357.7,596.2,363.2,602.7,370.5,603.3z"/>
				<path class="st0" d="M424,592.7c0.7-7.4-4.8-13.8-12.1-14.5c-7.3-0.6-13.8,4.8-14.5,12.1c-0.7,7.4,4.8,13.8,12.1,14.5
					C416.8,605.4,423.3,600,424,592.7z"/>
				<path class="st0" d="M462.4,586.4c0.7-7.3-4.8-13.8-12.1-14.5c-7.3-0.7-13.8,4.8-14.5,12.1c-0.6,7.3,4.8,13.8,12.1,14.5
					C455.3,599.2,461.8,593.8,462.4,586.4z"/>
				<path class="st0" d="M472.3,570.2c-0.7,7.3,4.8,13.8,12.1,14.5c7.4,0.7,13.8-4.8,14.5-12.1c0.7-7.3-4.8-13.8-12.1-14.5
					C479.4,557.5,472.9,562.9,472.3,570.2z"/>
				<path class="st0" d="M517.3,563.8c7.3,0.7,13.8-4.8,14.5-12.1c0.7-7.3-4.8-13.8-12.1-14.5c-7.3-0.7-13.8,4.8-14.5,12.1
					C504.5,556.7,510,563.2,517.3,563.8z"/>
				<path class="st0" d="M559.9,524.7c0.7-7.4-4.8-13.8-12.1-14.5c-7.3-0.7-13.8,4.8-14.5,12.1c-0.7,7.4,4.7,13.8,12.1,14.5
					C552.7,537.4,559.2,532,559.9,524.7z"/>
				<path class="st0" d="M582,492.5c0.7-7.4-4.7-13.8-12.1-14.5c-7.4-0.7-13.8,4.8-14.5,12.1c-0.7,7.4,4.8,13.8,12.1,14.5
					C574.8,505.3,581.3,499.9,582,492.5z"/>
				<path class="st0" d="M582.8,468.7c7.3,0.7,13.8-4.8,14.5-12.1c0.7-7.4-4.8-13.8-12.1-14.5c-7.3-0.7-13.8,4.8-14.5,12.1
					C570,461.5,575.4,468,582.8,468.7z"/>
				<path class="st0" d="M605.2,418.2c0.6-7.4-4.8-13.8-12.1-14.5c-7.4-0.7-13.8,4.8-14.5,12.1c-0.6,7.3,4.8,13.8,12.1,14.5
					C598.1,430.9,604.6,425.5,605.2,418.2z"/>
			</g>
		</g>
		<g>
			<radialGradient id="SVGID_1_" cx="128.9298" cy="39.5467" r="695.5759" gradientUnits="userSpaceOnUse">
				<stop  offset="0" style="stop-color:#773D94"/>
				<stop  offset="0.3738" style="stop-color:#633481"/>
				<stop  offset="1" style="stop-color:#3D2563"/>
			</radialGradient>
			<path class="st1" d="M711.8,336.1c0,13.2,10.7,23.9,23.9,23.9c13.2,0,23.9-10.7,23.9-23.9c0-13.2-10.7-23.9-23.9-23.9
				C722.4,312.3,711.8,322.9,711.8,336.1z"/>
			<radialGradient id="SVGID_2_" cx="128.9409" cy="39.5489" r="695.5655" gradientUnits="userSpaceOnUse">
				<stop  offset="0" style="stop-color:#773D94"/>
				<stop  offset="0.3738" style="stop-color:#633481"/>
				<stop  offset="1" style="stop-color:#3D2563"/>
			</radialGradient>
			<path class="st2" d="M691.6,269.4c0,13.2,10.7,23.8,23.9,23.8c13.2,0,23.8-10.7,23.8-23.8c0-13.2-10.7-23.9-23.8-23.9
				C702.3,245.5,691.6,256.2,691.6,269.4z"/>
			<radialGradient id="SVGID_3_" cx="128.9342" cy="39.5485" r="695.5745" gradientUnits="userSpaceOnUse">
				<stop  offset="0" style="stop-color:#773D94"/>
				<stop  offset="0.3738" style="stop-color:#633481"/>
				<stop  offset="1" style="stop-color:#3D2563"/>
			</radialGradient>
			<path class="st3" d="M682.4,231.9c13.2,0,23.9-10.7,23.9-23.9c0-13.2-10.7-23.8-23.9-23.8c-13.2,0-23.9,10.7-23.9,23.8
				C658.6,221.2,669.3,231.9,682.4,231.9z"/>
			<radialGradient id="SVGID_4_" cx="128.9347" cy="39.5444" r="695.5723" gradientUnits="userSpaceOnUse">
				<stop  offset="0" style="stop-color:#773D94"/>
				<stop  offset="0.3738" style="stop-color:#633481"/>
				<stop  offset="1" style="stop-color:#3D2563"/>
			</radialGradient>
			<path class="st4" d="M637.8,178.5c13.2,0,23.9-10.7,23.9-23.9c0-13.2-10.7-23.9-23.9-23.9c-13.2,0-23.9,10.7-23.9,23.9
				C614,167.8,624.6,178.5,637.8,178.5z"/>
			<radialGradient id="SVGID_5_" cx="128.9299" cy="39.5472" r="695.5803" gradientUnits="userSpaceOnUse">
				<stop  offset="0" style="stop-color:#773D94"/>
				<stop  offset="0.3738" style="stop-color:#633481"/>
				<stop  offset="1" style="stop-color:#3D2563"/>
			</radialGradient>
			<path class="st5" d="M583.4,135c13.2,0,23.8-10.7,23.8-23.9c0-13.2-10.7-23.8-23.8-23.8c-13.2,0-23.9,10.7-23.9,23.8
				C559.5,124.4,570.2,135,583.4,135z"/>
			<radialGradient id="SVGID_6_" cx="128.9326" cy="39.5466" r="695.5746" gradientUnits="userSpaceOnUse">
				<stop  offset="0" style="stop-color:#773D94"/>
				<stop  offset="0.3738" style="stop-color:#633481"/>
				<stop  offset="1" style="stop-color:#3D2563"/>
			</radialGradient>
			<path class="st6" d="M521.3,103.5c13.2,0,23.8-10.7,23.8-23.9c0-13.2-10.7-23.9-23.8-23.9c-13.2,0-23.9,10.7-23.9,23.9
				C497.5,92.8,508.2,103.5,521.3,103.5z"/>
			<radialGradient id="SVGID_7_" cx="128.9316" cy="39.5459" r="695.5796" gradientUnits="userSpaceOnUse">
				<stop  offset="0" style="stop-color:#773D94"/>
				<stop  offset="0.3738" style="stop-color:#633481"/>
				<stop  offset="1" style="stop-color:#3D2563"/>
			</radialGradient>
			<path class="st7" d="M454.2,84.9c13.2,0,23.9-10.7,23.9-23.8s-10.7-23.9-23.9-23.9c-13.2,0-23.8,10.7-23.8,23.9
				S441,84.9,454.2,84.9z"/>
			<radialGradient id="SVGID_8_" cx="128.9355" cy="39.5461" r="695.5707" gradientUnits="userSpaceOnUse">
				<stop  offset="0" style="stop-color:#773D94"/>
				<stop  offset="0.3738" style="stop-color:#633481"/>
				<stop  offset="1" style="stop-color:#3D2563"/>
			</radialGradient>
			<path class="st8" d="M384.6,79.9c13.2,0,23.8-10.7,23.8-23.8c0-13.2-10.7-23.9-23.8-23.9s-23.9,10.7-23.9,23.9
				C360.8,69.3,371.5,79.9,384.6,79.9z"/>
			<radialGradient id="SVGID_9_" cx="128.9345" cy="39.5467" r="695.5721" gradientUnits="userSpaceOnUse">
				<stop  offset="0" style="stop-color:#773D94"/>
				<stop  offset="0.3738" style="stop-color:#633481"/>
				<stop  offset="1" style="stop-color:#3D2563"/>
			</radialGradient>
			<path class="st9" d="M315.2,88.7c13.2,0,23.9-10.7,23.9-23.8c0-13.2-10.7-23.9-23.9-23.9c-13.2,0-23.8,10.7-23.8,23.9
				C291.4,78,302.1,88.7,315.2,88.7z"/>
			<radialGradient id="SVGID_10_" cx="128.9393" cy="39.5468" r="695.5513" gradientUnits="userSpaceOnUse">
				<stop  offset="0" style="stop-color:#773D94"/>
				<stop  offset="0.3738" style="stop-color:#633481"/>
				<stop  offset="1" style="stop-color:#3D2563"/>
			</radialGradient>
			<path class="st10" d="M249.3,112.3c13.2,0,23.9-10.7,23.9-23.8c0-13.2-10.7-23.9-23.9-23.9c-13.2,0-23.8,10.7-23.8,23.9
				C225.4,101.6,236.1,112.3,249.3,112.3z"/>
			<radialGradient id="SVGID_11_" cx="128.9336" cy="39.5466" r="695.5754" gradientUnits="userSpaceOnUse">
				<stop  offset="0" style="stop-color:#773D94"/>
				<stop  offset="0.3738" style="stop-color:#633481"/>
				<stop  offset="1" style="stop-color:#3D2563"/>
			</radialGradient>
			<path class="st11" d="M189.8,149.1c13.2,0,23.9-10.7,23.9-23.9c0-13.2-10.7-23.9-23.9-23.9c-13.2,0-23.8,10.7-23.8,23.9
				C166,138.4,176.6,149.1,189.8,149.1z"/>
			<radialGradient id="SVGID_12_" cx="128.9343" cy="39.5477" r="695.5667" gradientUnits="userSpaceOnUse">
				<stop  offset="0" style="stop-color:#773D94"/>
				<stop  offset="0.3738" style="stop-color:#633481"/>
				<stop  offset="1" style="stop-color:#3D2563"/>
			</radialGradient>
			<path class="st12" d="M139,197c13.2,0,23.8-10.7,23.8-23.9c0-13.2-10.7-23.8-23.8-23.8c-13.2,0-23.9,10.7-23.9,23.8
				C115.1,186.3,125.8,197,139,197z"/>
			<radialGradient id="SVGID_13_" cx="128.9346" cy="39.5469" r="695.5732" gradientUnits="userSpaceOnUse">
				<stop  offset="0" style="stop-color:#773D94"/>
				<stop  offset="0.3738" style="stop-color:#633481"/>
				<stop  offset="1" style="stop-color:#3D2563"/>
			</radialGradient>
			<path class="st13" d="M98.8,254c13.2,0,23.8-10.7,23.8-23.9c0-13.2-10.7-23.9-23.8-23.9S75,217,75,230.2
				C75,243.4,85.6,254,98.8,254z"/>
			<radialGradient id="SVGID_14_" cx="128.9335" cy="39.5471" r="695.5721" gradientUnits="userSpaceOnUse">
				<stop  offset="0" style="stop-color:#773D94"/>
				<stop  offset="0.3738" style="stop-color:#633481"/>
				<stop  offset="1" style="stop-color:#3D2563"/>
			</radialGradient>
			<path class="st14" d="M71,317.9c13.2,0,23.8-10.7,23.8-23.9c0-13.2-10.7-23.9-23.8-23.9c-13.2,0-23.9,10.7-23.9,23.9
				C47.2,307.3,57.8,317.9,71,317.9z"/>
			<radialGradient id="SVGID_15_" cx="128.9348" cy="39.5436" r="695.5804" gradientUnits="userSpaceOnUse">
				<stop  offset="0" style="stop-color:#773D94"/>
				<stop  offset="0.3738" style="stop-color:#633481"/>
				<stop  offset="1" style="stop-color:#3D2563"/>
			</radialGradient>
			<path class="st15" d="M56.7,386c13.2,0,23.9-10.7,23.9-23.8c0-13.2-10.7-23.9-23.9-23.9c-13.2,0-23.8,10.7-23.8,23.9
				C32.9,375.4,43.5,386,56.7,386z"/>
			<radialGradient id="SVGID_16_" cx="128.934" cy="39.5473" r="695.573" gradientUnits="userSpaceOnUse">
				<stop  offset="0" style="stop-color:#773D94"/>
				<stop  offset="0.3738" style="stop-color:#633481"/>
				<stop  offset="1" style="stop-color:#3D2563"/>
			</radialGradient>
			<path class="st16" d="M79.9,431.8c0-13.2-10.7-23.9-23.9-23.9c-13.2,0-23.9,10.7-23.9,23.9c0,13.2,10.7,23.9,23.9,23.9
				C69.2,455.6,79.9,444.9,79.9,431.8z"/>
			<radialGradient id="SVGID_17_" cx="128.9337" cy="39.5428" r="695.5803" gradientUnits="userSpaceOnUse">
				<stop  offset="0" style="stop-color:#773D94"/>
				<stop  offset="0.3738" style="stop-color:#633481"/>
				<stop  offset="1" style="stop-color:#3D2563"/>
			</radialGradient>
			<path class="st17" d="M92.9,500.2c0-13.2-10.7-23.8-23.9-23.8c-13.2,0-23.9,10.7-23.9,23.8c0,13.2,10.7,23.9,23.9,23.9
				C82.2,524,92.9,513.3,92.9,500.2z"/>
			<radialGradient id="SVGID_18_" cx="128.934" cy="39.5442" r="695.578" gradientUnits="userSpaceOnUse">
				<stop  offset="0" style="stop-color:#773D94"/>
				<stop  offset="0.3738" style="stop-color:#633481"/>
				<stop  offset="1" style="stop-color:#3D2563"/>
			</radialGradient>
			<path class="st18" d="M119.5,564.7c0-13.2-10.7-23.9-23.9-23.9c-13.2,0-23.9,10.7-23.9,23.9c0,13.2,10.7,23.8,23.9,23.8
				C108.8,588.5,119.5,577.8,119.5,564.7z"/>
			<radialGradient id="SVGID_19_" cx="128.9341" cy="39.5433" r="695.5787" gradientUnits="userSpaceOnUse">
				<stop  offset="0" style="stop-color:#773D94"/>
				<stop  offset="0.3738" style="stop-color:#633481"/>
				<stop  offset="1" style="stop-color:#3D2563"/>
			</radialGradient>
			<path class="st19" d="M134.8,598.6c-13.2,0-23.8,10.7-23.8,23.9c0,13.2,10.7,23.8,23.8,23.8c13.2,0,23.9-10.7,23.9-23.8
				C158.7,609.3,148,598.6,134.8,598.6z"/>
			<radialGradient id="SVGID_20_" cx="128.9341" cy="39.5415" r="695.5781" gradientUnits="userSpaceOnUse">
				<stop  offset="0" style="stop-color:#773D94"/>
				<stop  offset="0.3738" style="stop-color:#633481"/>
				<stop  offset="1" style="stop-color:#3D2563"/>
			</radialGradient>
			<path class="st20" d="M184.9,647.5c-13.2,0-23.8,10.7-23.8,23.9c0,13.2,10.7,23.8,23.8,23.8c13.2,0,23.8-10.7,23.8-23.8
				C208.7,658.2,198.1,647.5,184.9,647.5z"/>
			<radialGradient id="SVGID_21_" cx="128.9371" cy="39.549" r="695.5677" gradientUnits="userSpaceOnUse">
				<stop  offset="0" style="stop-color:#773D94"/>
				<stop  offset="0.3738" style="stop-color:#633481"/>
				<stop  offset="1" style="stop-color:#3D2563"/>
			</radialGradient>
			<path class="st21" d="M244,685.1c-13.2,0-23.9,10.7-23.9,23.9c0,13.2,10.7,23.9,23.9,23.9c13.2,0,23.8-10.7,23.8-23.9
				C267.8,695.7,257.2,685.1,244,685.1z"/>
			<radialGradient id="SVGID_22_" cx="128.9399" cy="39.5539" r="695.5648" gradientUnits="userSpaceOnUse">
				<stop  offset="0" style="stop-color:#773D94"/>
				<stop  offset="0.3738" style="stop-color:#633481"/>
				<stop  offset="1" style="stop-color:#3D2563"/>
			</radialGradient>
			<path class="st22" d="M309.7,709.1c-13.2,0-23.8,10.7-23.8,23.9c0,13.2,10.7,23.8,23.8,23.8c13.2,0,23.9-10.7,23.9-23.8
				C333.6,719.8,322.9,709.1,309.7,709.1z"/>
			<radialGradient id="SVGID_23_" cx="128.9404" cy="39.5384" r="695.5781" gradientUnits="userSpaceOnUse">
				<stop  offset="0" style="stop-color:#773D94"/>
				<stop  offset="0.3738" style="stop-color:#633481"/>
				<stop  offset="1" style="stop-color:#3D2563"/>
			</radialGradient>
			<path class="st23" d="M378.8,719.2c-13.2,0-23.8,10.7-23.8,23.9c0,13.2,10.7,23.8,23.8,23.8c13.2,0,23.9-10.7,23.9-23.8
				C402.7,729.8,392,719.2,378.8,719.2z"/>
			<radialGradient id="SVGID_24_" cx="128.9258" cy="39.5488" r="695.5728" gradientUnits="userSpaceOnUse">
				<stop  offset="0" style="stop-color:#773D94"/>
				<stop  offset="0.3738" style="stop-color:#633481"/>
				<stop  offset="1" style="stop-color:#3D2563"/>
			</radialGradient>
			<path class="st24" d="M448.4,715.5c-13.2,0-23.9,10.7-23.9,23.9c0,13.2,10.7,23.9,23.9,23.9c13.2,0,23.8-10.7,23.8-23.9
				C472.3,726.2,461.6,715.5,448.4,715.5z"/>
			<radialGradient id="SVGID_25_" cx="128.9337" cy="39.5487" r="695.5732" gradientUnits="userSpaceOnUse">
				<stop  offset="0" style="stop-color:#773D94"/>
				<stop  offset="0.3738" style="stop-color:#633481"/>
				<stop  offset="1" style="stop-color:#3D2563"/>
			</radialGradient>
			<path class="st25" d="M515.8,698.3c-13.2,0-23.8,10.7-23.8,23.9c0,13.2,10.7,23.9,23.8,23.9c13.2,0,23.9-10.7,23.9-23.9
				C539.7,709,529,698.3,515.8,698.3z"/>
			<radialGradient id="SVGID_26_" cx="128.9304" cy="39.5402" r="695.5802" gradientUnits="userSpaceOnUse">
				<stop  offset="0" style="stop-color:#773D94"/>
				<stop  offset="0.3738" style="stop-color:#633481"/>
				<stop  offset="1" style="stop-color:#3D2563"/>
			</radialGradient>
			<path class="st26" d="M578.4,667.9c-13.2,0-23.9,10.7-23.9,23.9c0,13.2,10.7,23.8,23.9,23.8c13.2,0,23.8-10.7,23.8-23.8
				C602.3,678.5,591.6,667.9,578.4,667.9z"/>
			<radialGradient id="SVGID_27_" cx="128.9404" cy="39.5503" r="695.5699" gradientUnits="userSpaceOnUse">
				<stop  offset="0" style="stop-color:#773D94"/>
				<stop  offset="0.3738" style="stop-color:#633481"/>
				<stop  offset="1" style="stop-color:#3D2563"/>
			</radialGradient>
			<path class="st27" d="M633.7,625.4c-13.2,0-23.8,10.7-23.8,23.9c0,13.2,10.7,23.9,23.8,23.9c13.2,0,23.8-10.7,23.8-23.9
				C657.5,636.1,646.8,625.4,633.7,625.4z"/>
			<radialGradient id="SVGID_28_" cx="128.9422" cy="39.5501" r="695.5661" gradientUnits="userSpaceOnUse">
				<stop  offset="0" style="stop-color:#773D94"/>
				<stop  offset="0.3738" style="stop-color:#633481"/>
				<stop  offset="1" style="stop-color:#3D2563"/>
			</radialGradient>
			<path class="st28" d="M679.3,572.8c-13.2,0-23.8,10.7-23.8,23.9c0,13.2,10.7,23.9,23.8,23.9c13.2,0,23.8-10.7,23.8-23.9
				C703.2,583.5,692.5,572.8,679.3,572.8z"/>
			<radialGradient id="SVGID_29_" cx="128.9216" cy="39.5396" r="695.5848" gradientUnits="userSpaceOnUse">
				<stop  offset="0" style="stop-color:#773D94"/>
				<stop  offset="0.3738" style="stop-color:#633481"/>
				<stop  offset="1" style="stop-color:#3D2563"/>
			</radialGradient>
			<path class="st29" d="M713.5,512.1c-13.2,0-23.8,10.7-23.8,23.9c0,13.2,10.7,23.8,23.8,23.8c13.2,0,23.9-10.7,23.9-23.8
				C737.4,522.7,726.7,512.1,713.5,512.1z"/>
			<radialGradient id="SVGID_30_" cx="128.9329" cy="39.5475" r="695.5753" gradientUnits="userSpaceOnUse">
				<stop  offset="0" style="stop-color:#773D94"/>
				<stop  offset="0.3738" style="stop-color:#633481"/>
				<stop  offset="1" style="stop-color:#3D2563"/>
			</radialGradient>
			<path class="st30" d="M735,445.6c-13.2,0-23.9,10.7-23.9,23.9c0,13.2,10.7,23.9,23.9,23.9c13.2,0,23.8-10.7,23.8-23.9
				C758.8,456.3,748.1,445.6,735,445.6z"/>
			<radialGradient id="SVGID_31_" cx="128.9436" cy="39.5502" r="695.562" gradientUnits="userSpaceOnUse">
				<stop  offset="0" style="stop-color:#773D94"/>
				<stop  offset="0.3738" style="stop-color:#633481"/>
				<stop  offset="1" style="stop-color:#3D2563"/>
			</radialGradient>
			<path class="st31" d="M743,376c-13.2,0-23.9,10.7-23.9,23.8s10.7,23.9,23.9,23.9c13.2,0,23.8-10.7,23.8-23.9S756.1,376,743,376z"
				/>
			<radialGradient id="SVGID_32_" cx="128.9641" cy="39.5739" r="695.5313" gradientUnits="userSpaceOnUse">
				<stop  offset="0" style="stop-color:#773D94"/>
				<stop  offset="0.3738" style="stop-color:#633481"/>
				<stop  offset="1" style="stop-color:#3D2563"/>
			</radialGradient>
			<path class="st32" d="M669,370.8c-1,11.1,7.1,20.9,18.2,22c11.1,1,20.9-7.1,22-18.2c1-11.1-7.1-20.9-18.2-22
				C679.9,351.5,670,359.7,669,370.8z"/>
			<radialGradient id="SVGID_33_" cx="128.9626" cy="39.5721" r="695.5326" gradientUnits="userSpaceOnUse">
				<stop  offset="0" style="stop-color:#773D94"/>
				<stop  offset="0.3738" style="stop-color:#633481"/>
				<stop  offset="1" style="stop-color:#3D2563"/>
			</radialGradient>
			<path class="st33" d="M679.2,294.7c-11.1-1-20.9,7.1-22,18.2c-1,11.1,7.1,20.9,18.2,22c11.1,1,20.9-7.1,22-18.2
				C698.5,305.6,690.3,295.7,679.2,294.7z"/>
			<radialGradient id="SVGID_34_" cx="128.9585" cy="39.5527" r="695.5408" gradientUnits="userSpaceOnUse">
				<stop  offset="0" style="stop-color:#773D94"/>
				<stop  offset="0.3738" style="stop-color:#633481"/>
				<stop  offset="1" style="stop-color:#3D2563"/>
			</radialGradient>
			<path class="st34" d="M656.2,240.4c-11.1-1-20.9,7.1-22,18.2c-1,11.1,7.1,20.9,18.2,22c11.1,1,20.9-7.1,22-18.2
				C675.4,251.3,667.3,241.5,656.2,240.4z"/>
			<radialGradient id="SVGID_35_" cx="128.9384" cy="39.5627" r="695.5616" gradientUnits="userSpaceOnUse">
				<stop  offset="0" style="stop-color:#773D94"/>
				<stop  offset="0.3738" style="stop-color:#633481"/>
				<stop  offset="1" style="stop-color:#3D2563"/>
			</radialGradient>
			<path class="st35" d="M622.7,191.9c-11.1-1-20.9,7.1-22,18.2c-1,11.1,7.1,20.9,18.2,22c11.1,1,20.9-7.1,22-18.2
				C642,202.8,633.8,192.9,622.7,191.9z"/>
			<radialGradient id="SVGID_36_" cx="128.9737" cy="39.5669" r="695.5058" gradientUnits="userSpaceOnUse">
				<stop  offset="0" style="stop-color:#773D94"/>
				<stop  offset="0.3738" style="stop-color:#633481"/>
				<stop  offset="1" style="stop-color:#3D2563"/>
			</radialGradient>
			<path class="st36" d="M576.5,191.2c11.1,1,20.9-7.1,22-18.2c1-11.1-7.1-20.9-18.2-22c-11.1-1-20.9,7.1-22,18.2
				C557.2,180.4,565.4,190.2,576.5,191.2z"/>
			<radialGradient id="SVGID_37_" cx="128.9377" cy="39.5541" r="695.5618" gradientUnits="userSpaceOnUse">
				<stop  offset="0" style="stop-color:#773D94"/>
				<stop  offset="0.3738" style="stop-color:#633481"/>
				<stop  offset="1" style="stop-color:#3D2563"/>
			</radialGradient>
			<path class="st37" d="M530.5,119.5c-11.1-1-20.9,7.1-22,18.2c-1,11.1,7.1,20.9,18.2,22c11.1,1,20.9-7.1,22-18.2
				C549.7,130.4,541.5,120.6,530.5,119.5z"/>
			<radialGradient id="SVGID_38_" cx="128.9529" cy="39.5503" r="695.5342" gradientUnits="userSpaceOnUse">
				<stop  offset="0" style="stop-color:#773D94"/>
				<stop  offset="0.3738" style="stop-color:#633481"/>
				<stop  offset="1" style="stop-color:#3D2563"/>
			</radialGradient>
			<path class="st38" d="M453.3,116.9c-1,11.1,7.1,20.9,18.2,22c11.1,1,20.9-7.1,22-18.2s-7.1-20.9-18.2-22
				C464.2,97.6,454.4,105.8,453.3,116.9z"/>
			<radialGradient id="SVGID_39_" cx="128.9399" cy="39.554" r="695.5546" gradientUnits="userSpaceOnUse">
				<stop  offset="0" style="stop-color:#773D94"/>
				<stop  offset="0.3738" style="stop-color:#633481"/>
				<stop  offset="1" style="stop-color:#3D2563"/>
			</radialGradient>
			<path class="st39" d="M395.1,107.2c-1,11.1,7.1,20.9,18.2,22c11.1,1,20.9-7.1,22-18.2c1-11.1-7.1-20.9-18.2-22
				C406,87.9,396.1,96.1,395.1,107.2z"/>
			<radialGradient id="SVGID_40_" cx="128.9478" cy="39.5586" r="695.5245" gradientUnits="userSpaceOnUse">
				<stop  offset="0" style="stop-color:#773D94"/>
				<stop  offset="0.3738" style="stop-color:#633481"/>
				<stop  offset="1" style="stop-color:#3D2563"/>
			</radialGradient>
			<path class="st40" d="M354.1,131.1c11.1,1,20.9-7.1,22-18.2c1-11.1-7.1-20.9-18.2-22c-11.1-1-20.9,7.1-22,18.2
				C334.9,120.3,343,130.1,354.1,131.1z"/>
			<radialGradient id="SVGID_41_" cx="128.9445" cy="39.5598" r="695.5168" gradientUnits="userSpaceOnUse">
				<stop  offset="0" style="stop-color:#773D94"/>
				<stop  offset="0.3738" style="stop-color:#633481"/>
				<stop  offset="1" style="stop-color:#3D2563"/>
			</radialGradient>
			<path class="st41" d="M296.7,145.8c11.1,1,20.9-7.1,22-18.2c1-11.1-7.1-20.9-18.2-22c-11.1-1-20.9,7.1-22,18.2
				C277.4,135,285.6,144.8,296.7,145.8z"/>
			<radialGradient id="SVGID_42_" cx="128.9448" cy="39.5471" r="695.5388" gradientUnits="userSpaceOnUse">
				<stop  offset="0" style="stop-color:#773D94"/>
				<stop  offset="0.3738" style="stop-color:#633481"/>
				<stop  offset="1" style="stop-color:#3D2563"/>
			</radialGradient>
			<path class="st42" d="M243.7,172.2c11.1,1,20.9-7.1,22-18.2c1-11.1-7.1-20.9-18.2-22c-11.1-1-20.9,7.1-22,18.2
				C224.4,161.4,232.6,171.2,243.7,172.2z"/>
			<radialGradient id="SVGID_43_" cx="128.937" cy="39.5506" r="695.5512" gradientUnits="userSpaceOnUse">
				<stop  offset="0" style="stop-color:#773D94"/>
				<stop  offset="0.3738" style="stop-color:#633481"/>
				<stop  offset="1" style="stop-color:#3D2563"/>
			</radialGradient>
			<path class="st43" d="M200.8,168.4c-11.1-1-20.9,7.1-22,18.2c-1,11.1,7.1,20.9,18.2,22c11.1,1,20.9-7.1,22-18.2
				C220.1,179.3,211.9,169.4,200.8,168.4z"/>
			<radialGradient id="SVGID_44_" cx="128.941" cy="39.5782" r="695.4599" gradientUnits="userSpaceOnUse">
				<stop  offset="0" style="stop-color:#773D94"/>
				<stop  offset="0.3738" style="stop-color:#633481"/>
				<stop  offset="1" style="stop-color:#3D2563"/>
			</radialGradient>
			<path class="st44" d="M162.5,213.3c-11.1-1-20.9,7.1-22,18.2c-1,11.1,7.1,20.9,18.2,22c11.1,1,20.9-7.1,22-18.2
				C181.7,224.2,173.6,214.3,162.5,213.3z"/>
			<radialGradient id="SVGID_45_" cx="128.9294" cy="39.5658" r="695.5154" gradientUnits="userSpaceOnUse">
				<stop  offset="0" style="stop-color:#773D94"/>
				<stop  offset="0.3738" style="stop-color:#633481"/>
				<stop  offset="1" style="stop-color:#3D2563"/>
			</radialGradient>
			<path class="st45" d="M112.1,283.2c-1,11.1,7.1,20.9,18.2,22c11.1,1,20.9-7.1,22-18.2c1-11.1-7.1-20.9-18.2-22
				C122.9,263.9,113.1,272.1,112.1,283.2z"/>
			<radialGradient id="SVGID_46_" cx="128.9315" cy="39.5542" r="695.5538" gradientUnits="userSpaceOnUse">
				<stop  offset="0" style="stop-color:#773D94"/>
				<stop  offset="0.3738" style="stop-color:#633481"/>
				<stop  offset="1" style="stop-color:#3D2563"/>
			</radialGradient>
			<path class="st46" d="M94.7,339.5c-1,11.1,7.1,20.9,18.2,22c11.1,1,20.9-7.1,22-18.2c1-11.1-7.1-20.9-18.2-22
				C105.5,320.2,95.7,328.4,94.7,339.5z"/>
			<radialGradient id="SVGID_47_" cx="128.9338" cy="39.557" r="695.5519" gradientUnits="userSpaceOnUse">
				<stop  offset="0" style="stop-color:#773D94"/>
				<stop  offset="0.3738" style="stop-color:#633481"/>
				<stop  offset="1" style="stop-color:#3D2563"/>
			</radialGradient>
			<path class="st47" d="M88.6,398.1c-1,11.1,7.1,20.9,18.2,22c11.1,1,20.9-7.1,22-18.2c1-11.1-7.1-20.9-18.2-22
				C99.5,378.8,89.7,387,88.6,398.1z"/>
			<radialGradient id="SVGID_48_" cx="128.933" cy="39.5558" r="695.5583" gradientUnits="userSpaceOnUse">
				<stop  offset="0" style="stop-color:#773D94"/>
				<stop  offset="0.3738" style="stop-color:#633481"/>
				<stop  offset="1" style="stop-color:#3D2563"/>
			</radialGradient>
			<path class="st48" d="M112.5,478.8c11.1,1,20.9-7.1,22-18.2c1-11.1-7.1-20.9-18.2-22c-11.1-1-20.9,7.1-22,18.2
				C93.2,467.9,101.4,477.7,112.5,478.8z"/>
			<radialGradient id="SVGID_49_" cx="128.9341" cy="39.5886" r="695.5134" gradientUnits="userSpaceOnUse">
				<stop  offset="0" style="stop-color:#773D94"/>
				<stop  offset="0.3738" style="stop-color:#633481"/>
				<stop  offset="1" style="stop-color:#3D2563"/>
			</radialGradient>
			<path class="st49" d="M129.8,535.2c11.1,1,20.9-7.1,22-18.2c1-11.1-7.1-20.9-18.2-22c-11.1-1-20.9,7.1-22,18.2
				C110.6,524.3,118.7,534.1,129.8,535.2z"/>
			<radialGradient id="SVGID_50_" cx="128.939" cy="39.59" r="695.5149" gradientUnits="userSpaceOnUse">
				<stop  offset="0" style="stop-color:#773D94"/>
				<stop  offset="0.3738" style="stop-color:#633481"/>
				<stop  offset="1" style="stop-color:#3D2563"/>
			</radialGradient>
			<path class="st50" d="M180.3,568.8c1-11.1-7.1-20.9-18.2-22c-11.1-1-20.9,7.1-22,18.2c-1,11.1,7.1,20.9,18.2,22
				C169.4,588,179.3,579.9,180.3,568.8z"/>
			<radialGradient id="SVGID_51_" cx="128.9443" cy="39.5983" r="695.5123" gradientUnits="userSpaceOnUse">
				<stop  offset="0" style="stop-color:#773D94"/>
				<stop  offset="0.3738" style="stop-color:#633481"/>
				<stop  offset="1" style="stop-color:#3D2563"/>
			</radialGradient>
			<path class="st51" d="M200.4,591.9c-11.1-1-20.9,7.1-22,18.2c-1,11.1,7.1,20.9,18.2,22c11.1,1,20.9-7.1,22-18.2
				C219.7,602.8,211.5,593,200.4,591.9z"/>
			<radialGradient id="SVGID_52_" cx="128.9413" cy="39.5991" r="695.5118" gradientUnits="userSpaceOnUse">
				<stop  offset="0" style="stop-color:#773D94"/>
				<stop  offset="0.3738" style="stop-color:#633481"/>
				<stop  offset="1" style="stop-color:#3D2563"/>
			</radialGradient>
			<path class="st52" d="M243.6,668.5c11.1,1,20.9-7.1,22-18.2c1-11.1-7.1-20.9-18.2-22c-11.1-1-20.9,7.1-22,18.2
				C224.3,657.6,232.4,667.4,243.6,668.5z"/>
			<radialGradient id="SVGID_53_" cx="128.9382" cy="39.5591" r="695.5608" gradientUnits="userSpaceOnUse">
				<stop  offset="0" style="stop-color:#773D94"/>
				<stop  offset="0.3738" style="stop-color:#633481"/>
				<stop  offset="1" style="stop-color:#3D2563"/>
			</radialGradient>
			<path class="st53" d="M319.1,675.6c1-11.1-7.1-20.9-18.2-22c-11.1-1-20.9,7.1-22,18.2c-1,11.1,7.1,20.9,18.2,22
				C308.2,694.9,318,686.7,319.1,675.6z"/>
			<radialGradient id="SVGID_54_" cx="128.9546" cy="39.6006" r="695.5166" gradientUnits="userSpaceOnUse">
				<stop  offset="0" style="stop-color:#773D94"/>
				<stop  offset="0.3738" style="stop-color:#633481"/>
				<stop  offset="1" style="stop-color:#3D2563"/>
			</radialGradient>
			<path class="st54" d="M376.5,689.5c1-11.1-7.1-20.9-18.2-22c-11.1-1-20.9,7.1-22,18.2c-1,11.1,7.1,20.9,18.2,22
				C365.6,708.8,375.5,700.6,376.5,689.5z"/>
			<radialGradient id="SVGID_55_" cx="128.9509" cy="39.5891" r="695.5267" gradientUnits="userSpaceOnUse">
				<stop  offset="0" style="stop-color:#773D94"/>
				<stop  offset="0.3738" style="stop-color:#633481"/>
				<stop  offset="1" style="stop-color:#3D2563"/>
			</radialGradient>
			<path class="st55" d="M435.4,691.9c1-11.1-7.1-20.9-18.2-22c-11.1-1-20.9,7.1-22,18.2c-1,11.1,7.1,20.9,18.2,22
				C424.6,711.2,434.4,703,435.4,691.9z"/>
			<radialGradient id="SVGID_56_" cx="128.977" cy="39.6463" r="695.4709" gradientUnits="userSpaceOnUse">
				<stop  offset="0" style="stop-color:#773D94"/>
				<stop  offset="0.3738" style="stop-color:#633481"/>
				<stop  offset="1" style="stop-color:#3D2563"/>
			</radialGradient>
			<path class="st56" d="M475.4,660.7c-11.1-1-20.9,7.1-22,18.2c-1,11.1,7.1,20.9,18.2,22c11.1,1,20.9-7.1,22-18.2
				C494.7,671.6,486.5,661.7,475.4,660.7z"/>
			<radialGradient id="SVGID_57_" cx="128.9686" cy="39.5489" r="695.5529" gradientUnits="userSpaceOnUse">
				<stop  offset="0" style="stop-color:#773D94"/>
				<stop  offset="0.3738" style="stop-color:#633481"/>
				<stop  offset="1" style="stop-color:#3D2563"/>
			</radialGradient>
			<path class="st57" d="M530.6,640c-11.1-1-20.9,7.1-22,18.2c-1,11.1,7.1,20.9,18.2,22c11.1,1,20.9-7.1,22-18.2
				C549.8,650.8,541.7,641,530.6,640z"/>
			<radialGradient id="SVGID_58_" cx="128.9657" cy="39.5988" r="695.5158" gradientUnits="userSpaceOnUse">
				<stop  offset="0" style="stop-color:#773D94"/>
				<stop  offset="0.3738" style="stop-color:#633481"/>
				<stop  offset="1" style="stop-color:#3D2563"/>
			</radialGradient>
			<path class="st58" d="M580.5,608.6c-11.1-1-20.9,7.1-22,18.2s7.1,20.9,18.2,22c11.1,1,20.9-7.1,22-18.2
				C599.7,619.4,591.6,609.6,580.5,608.6z"/>
			<radialGradient id="SVGID_59_" cx="128.9793" cy="39.5973" r="695.5115" gradientUnits="userSpaceOnUse">
				<stop  offset="0" style="stop-color:#773D94"/>
				<stop  offset="0.3738" style="stop-color:#633481"/>
				<stop  offset="1" style="stop-color:#3D2563"/>
			</radialGradient>
			<path class="st59" d="M641.3,589.7c1-11.1-7.1-20.9-18.2-22c-11.1-1-20.9,7.1-22,18.2c-1,11.1,7.1,20.9,18.2,22
				C630.4,609,640.2,600.8,641.3,589.7z"/>
			<radialGradient id="SVGID_60_" cx="129.0019" cy="39.5877" r="695.5003" gradientUnits="userSpaceOnUse">
				<stop  offset="0" style="stop-color:#773D94"/>
				<stop  offset="0.3738" style="stop-color:#633481"/>
				<stop  offset="1" style="stop-color:#3D2563"/>
			</radialGradient>
			<path class="st60" d="M652.9,559.5c11.1,1,20.9-7.1,22-18.2c1-11.1-7.1-20.9-18.2-22c-11.1-1-20.9,7.1-22,18.2
				C633.7,548.6,641.8,558.4,652.9,559.5z"/>
			<radialGradient id="SVGID_61_" cx="128.9565" cy="39.5807" r="695.5358" gradientUnits="userSpaceOnUse">
				<stop  offset="0" style="stop-color:#773D94"/>
				<stop  offset="0.3738" style="stop-color:#633481"/>
				<stop  offset="1" style="stop-color:#3D2563"/>
			</radialGradient>
			<path class="st61" d="M698.2,486.9c1-11.1-7.1-20.9-18.2-22c-11.1-1-20.9,7.1-22,18.2c-1,11.1,7.1,20.9,18.2,22
				C687.3,506.1,697.1,498,698.2,486.9z"/>
			<radialGradient id="SVGID_62_" cx="128.985" cy="39.5559" r="695.527" gradientUnits="userSpaceOnUse">
				<stop  offset="0" style="stop-color:#773D94"/>
				<stop  offset="0.3738" style="stop-color:#633481"/>
				<stop  offset="1" style="stop-color:#3D2563"/>
			</radialGradient>
			<path class="st62" d="M710.4,428.9c1-11.1-7.1-20.9-18.2-22c-11.1-1-20.9,7.1-22,18.2c-1,11.1,7.1,20.9,18.2,22
				C699.5,448.1,709.4,440,710.4,428.9z"/>
			<radialGradient id="SVGID_63_" cx="128.9307" cy="39.5438" r="695.5807" gradientUnits="userSpaceOnUse">
				<stop  offset="0" style="stop-color:#773D94"/>
				<stop  offset="0.3738" style="stop-color:#633481"/>
				<stop  offset="1" style="stop-color:#3D2563"/>
			</radialGradient>
			<path class="st63" d="M632.1,370.5c9.1-0.1,16.5-7.5,16.4-16.6c-0.1-9.1-7.5-16.5-16.6-16.4c-9.1,0.1-16.5,7.5-16.4,16.6
				C615.5,363.2,622.9,370.5,632.1,370.5z"/>
			<radialGradient id="SVGID_64_" cx="128.9234" cy="39.5441" r="695.5883" gradientUnits="userSpaceOnUse">
				<stop  offset="0" style="stop-color:#773D94"/>
				<stop  offset="0.3738" style="stop-color:#633481"/>
				<stop  offset="1" style="stop-color:#3D2563"/>
			</radialGradient>
			<path class="st64" d="M617.8,324.3c9.1-0.1,16.5-7.5,16.4-16.6c-0.1-9.1-7.5-16.5-16.6-16.4c-9.1,0.1-16.5,7.5-16.4,16.6
				C601.2,317,608.7,324.4,617.8,324.3z"/>
			<radialGradient id="SVGID_65_" cx="128.9306" cy="39.5428" r="695.5822" gradientUnits="userSpaceOnUse">
				<stop  offset="0" style="stop-color:#773D94"/>
				<stop  offset="0.3738" style="stop-color:#633481"/>
				<stop  offset="1" style="stop-color:#3D2563"/>
			</radialGradient>
			<path class="st65" d="M578,265.6c0.1,9.1,7.5,16.5,16.6,16.4c9.1-0.1,16.5-7.5,16.4-16.6c-0.1-9.1-7.5-16.5-16.6-16.4
				C585.3,249,577.9,256.5,578,265.6z"/>
			<radialGradient id="SVGID_66_" cx="128.935" cy="39.544" r="695.576" gradientUnits="userSpaceOnUse">
				<stop  offset="0" style="stop-color:#773D94"/>
				<stop  offset="0.3738" style="stop-color:#633481"/>
				<stop  offset="1" style="stop-color:#3D2563"/>
			</radialGradient>
			<path class="st66" d="M563.4,245.2c9.1-0.1,16.5-7.5,16.4-16.6c-0.1-9.1-7.5-16.5-16.6-16.4c-9.1,0.1-16.5,7.5-16.4,16.6
				C546.9,237.9,554.3,245.3,563.4,245.2z"/>
			<radialGradient id="SVGID_67_" cx="128.9179" cy="39.5448" r="695.5997" gradientUnits="userSpaceOnUse">
				<stop  offset="0" style="stop-color:#773D94"/>
				<stop  offset="0.3738" style="stop-color:#633481"/>
				<stop  offset="1" style="stop-color:#3D2563"/>
			</radialGradient>
			<path class="st67" d="M525.3,182.3c-9.1,0.1-16.5,7.5-16.4,16.6c0.1,9.1,7.5,16.5,16.6,16.4c9.1-0.1,16.5-7.5,16.4-16.6
				C541.9,189.6,534.4,182.3,525.3,182.3z"/>
			<radialGradient id="SVGID_68_" cx="128.9283" cy="39.544" r="695.5844" gradientUnits="userSpaceOnUse">
				<stop  offset="0" style="stop-color:#773D94"/>
				<stop  offset="0.3738" style="stop-color:#633481"/>
				<stop  offset="1" style="stop-color:#3D2563"/>
			</radialGradient>
			<path class="st68" d="M465.8,177.4c0.1,9.1,7.5,16.5,16.6,16.4c9.1-0.1,16.5-7.5,16.4-16.6c-0.1-9.1-7.5-16.5-16.6-16.4
				C473.1,160.8,465.7,168.3,465.8,177.4z"/>
			<radialGradient id="SVGID_69_" cx="128.9306" cy="39.5444" r="695.5818" gradientUnits="userSpaceOnUse">
				<stop  offset="0" style="stop-color:#773D94"/>
				<stop  offset="0.3738" style="stop-color:#633481"/>
				<stop  offset="1" style="stop-color:#3D2563"/>
			</radialGradient>
			<path class="st69" d="M435.6,148.3c-9.1,0.1-16.5,7.5-16.4,16.6c0.1,9.1,7.5,16.5,16.6,16.4c9.1-0.1,16.5-7.5,16.4-16.6
				C452.2,155.5,444.7,148.2,435.6,148.3z"/>
			<radialGradient id="SVGID_70_" cx="128.9239" cy="39.5421" r="695.6006" gradientUnits="userSpaceOnUse">
				<stop  offset="0" style="stop-color:#773D94"/>
				<stop  offset="0.3738" style="stop-color:#633481"/>
				<stop  offset="1" style="stop-color:#3D2563"/>
			</radialGradient>
			<path class="st70" d="M387.4,145.1c-9.1,0.1-16.5,7.5-16.4,16.6c0.1,9.1,7.5,16.5,16.6,16.4c9.1-0.1,16.5-7.5,16.4-16.6
				C404,152.4,396.5,145,387.4,145.1z"/>
			<radialGradient id="SVGID_71_" cx="128.9332" cy="39.5455" r="695.5775" gradientUnits="userSpaceOnUse">
				<stop  offset="0" style="stop-color:#773D94"/>
				<stop  offset="0.3738" style="stop-color:#633481"/>
				<stop  offset="1" style="stop-color:#3D2563"/>
			</radialGradient>
			<path class="st71" d="M339.4,151.5c-9.1,0.1-16.5,7.5-16.4,16.6c0.1,9.1,7.5,16.5,16.6,16.4c9.1-0.1,16.5-7.5,16.4-16.6
				C355.9,158.8,348.5,151.5,339.4,151.5z"/>
			<radialGradient id="SVGID_72_" cx="128.9282" cy="39.5446" r="695.5892" gradientUnits="userSpaceOnUse">
				<stop  offset="0" style="stop-color:#773D94"/>
				<stop  offset="0.3738" style="stop-color:#633481"/>
				<stop  offset="1" style="stop-color:#3D2563"/>
			</radialGradient>
			<path class="st72" d="M294,201.2c9.1-0.1,16.5-7.5,16.4-16.6c-0.1-9.1-7.5-16.5-16.6-16.4c-9.1,0.1-16.5,7.5-16.4,16.6
				C277.4,193.9,284.9,201.3,294,201.2z"/>
			<radialGradient id="SVGID_73_" cx="128.9319" cy="39.5449" r="695.5821" gradientUnits="userSpaceOnUse">
				<stop  offset="0" style="stop-color:#773D94"/>
				<stop  offset="0.3738" style="stop-color:#633481"/>
				<stop  offset="1" style="stop-color:#3D2563"/>
			</radialGradient>
			<path class="st73" d="M252.8,194c-9.1,0.1-16.5,7.5-16.4,16.6c0.1,9.1,7.5,16.5,16.6,16.4c9.1-0.1,16.5-7.5,16.4-16.6
				C269.4,201.2,261.9,193.9,252.8,194z"/>
			<radialGradient id="SVGID_74_" cx="128.9334" cy="39.5388" r="695.5957" gradientUnits="userSpaceOnUse">
				<stop  offset="0" style="stop-color:#773D94"/>
				<stop  offset="0.3738" style="stop-color:#633481"/>
				<stop  offset="1" style="stop-color:#3D2563"/>
			</radialGradient>
			<path class="st74" d="M217.8,227.4c-9.1,0.1-16.5,7.5-16.4,16.6c0.1,9.1,7.5,16.5,16.6,16.4c9.1-0.1,16.5-7.5,16.4-16.6
				C234.4,234.7,226.9,227.3,217.8,227.4z"/>
			<radialGradient id="SVGID_75_" cx="128.9334" cy="39.5439" r="695.5809" gradientUnits="userSpaceOnUse">
				<stop  offset="0" style="stop-color:#773D94"/>
				<stop  offset="0.3738" style="stop-color:#633481"/>
				<stop  offset="1" style="stop-color:#3D2563"/>
			</radialGradient>
			<path class="st75" d="M173.8,283.7c0.1,9.1,7.5,16.5,16.6,16.4c9.1-0.1,16.5-7.5,16.4-16.6c-0.1-9.1-7.5-16.5-16.6-16.4
				C181.1,267.1,173.8,274.6,173.8,283.7z"/>
			<radialGradient id="SVGID_76_" cx="128.9324" cy="39.5401" r="695.5889" gradientUnits="userSpaceOnUse">
				<stop  offset="0" style="stop-color:#773D94"/>
				<stop  offset="0.3738" style="stop-color:#633481"/>
				<stop  offset="1" style="stop-color:#3D2563"/>
			</radialGradient>
			<path class="st76" d="M187.9,327.8c-0.1-9.1-7.5-16.5-16.6-16.4c-9.1,0.1-16.5,7.5-16.4,16.6c0.1,9.1,7.5,16.5,16.6,16.4
				C180.6,344.4,188,337,187.9,327.8z"/>
			<radialGradient id="SVGID_77_" cx="128.9292" cy="39.5438" r="695.5801" gradientUnits="userSpaceOnUse">
				<stop  offset="0" style="stop-color:#773D94"/>
				<stop  offset="0.3738" style="stop-color:#633481"/>
				<stop  offset="1" style="stop-color:#3D2563"/>
			</radialGradient>
			<path class="st77" d="M145.3,375.3c0.1,9.1,7.5,16.5,16.6,16.4c9.1-0.1,16.5-7.5,16.4-16.6c-0.1-9.1-7.5-16.5-16.6-16.4
				C152.6,358.7,145.2,366.2,145.3,375.3z"/>
			<radialGradient id="SVGID_78_" cx="128.9375" cy="39.5423" r="695.5806" gradientUnits="userSpaceOnUse">
				<stop  offset="0" style="stop-color:#773D94"/>
				<stop  offset="0.3738" style="stop-color:#633481"/>
				<stop  offset="1" style="stop-color:#3D2563"/>
			</radialGradient>
			<path class="st78" d="M178.2,423.3c-0.1-9.1-7.5-16.5-16.6-16.4c-9.1,0.1-16.5,7.5-16.4,16.6c0.1,9.1,7.5,16.5,16.6,16.4
				C170.9,439.9,178.3,432.4,178.2,423.3z"/>
			<radialGradient id="SVGID_79_" cx="128.9384" cy="39.5423" r="695.5795" gradientUnits="userSpaceOnUse">
				<stop  offset="0" style="stop-color:#773D94"/>
				<stop  offset="0.3738" style="stop-color:#633481"/>
				<stop  offset="1" style="stop-color:#3D2563"/>
			</radialGradient>
			<path class="st79" d="M171.1,487.3c9.1-0.1,16.5-7.5,16.4-16.6c-0.1-9.1-7.5-16.5-16.6-16.4c-9.1,0.1-16.5,7.5-16.4,16.6
				C154.6,480,162,487.3,171.1,487.3z"/>
			<radialGradient id="SVGID_80_" cx="128.929" cy="39.5275" r="695.6034" gradientUnits="userSpaceOnUse">
				<stop  offset="0" style="stop-color:#773D94"/>
				<stop  offset="0.3738" style="stop-color:#633481"/>
				<stop  offset="1" style="stop-color:#3D2563"/>
			</radialGradient>
			<path class="st80" d="M189.9,531.8c9.1-0.1,16.5-7.5,16.4-16.6c-0.1-9.1-7.5-16.5-16.6-16.4c-9.1,0.1-16.5,7.5-16.4,16.6
				C173.3,524.5,180.7,531.8,189.9,531.8z"/>
			<radialGradient id="SVGID_81_" cx="128.9314" cy="39.5427" r="695.5782" gradientUnits="userSpaceOnUse">
				<stop  offset="0" style="stop-color:#773D94"/>
				<stop  offset="0.3738" style="stop-color:#633481"/>
				<stop  offset="1" style="stop-color:#3D2563"/>
			</radialGradient>
			<path class="st81" d="M217,538.6c-9.1,0.1-16.5,7.5-16.4,16.6c0.1,9.1,7.5,16.5,16.6,16.4c9.1-0.1,16.5-7.5,16.4-16.6
				C233.6,545.9,226.2,538.5,217,538.6z"/>
			<radialGradient id="SVGID_82_" cx="128.9318" cy="39.5364" r="695.5842" gradientUnits="userSpaceOnUse">
				<stop  offset="0" style="stop-color:#773D94"/>
				<stop  offset="0.3738" style="stop-color:#633481"/>
				<stop  offset="1" style="stop-color:#3D2563"/>
			</radialGradient>
			<path class="st82" d="M251.9,572.2c-9.1,0.1-16.5,7.5-16.4,16.6c0.1,9.1,7.5,16.5,16.6,16.4c9.1-0.1,16.5-7.5,16.4-16.6
				C268.5,579.5,261.1,572.2,251.9,572.2z"/>
			<radialGradient id="SVGID_83_" cx="128.9283" cy="39.5252" r="695.601" gradientUnits="userSpaceOnUse">
				<stop  offset="0" style="stop-color:#773D94"/>
				<stop  offset="0.3738" style="stop-color:#633481"/>
				<stop  offset="1" style="stop-color:#3D2563"/>
			</radialGradient>
			<path class="st83" d="M293.3,631c9.1-0.1,16.5-7.5,16.4-16.6c-0.1-9.1-7.5-16.5-16.6-16.4c-9.1,0.1-16.5,7.5-16.4,16.6
				C276.7,623.7,284.1,631.1,293.3,631z"/>
			<radialGradient id="SVGID_84_" cx="128.9221" cy="39.542" r="695.5847" gradientUnits="userSpaceOnUse">
				<stop  offset="0" style="stop-color:#773D94"/>
				<stop  offset="0.3738" style="stop-color:#633481"/>
				<stop  offset="1" style="stop-color:#3D2563"/>
			</radialGradient>
			<path class="st84" d="M338.9,647.3c9.1-0.1,16.5-7.5,16.4-16.6c-0.1-9.1-7.5-16.5-16.6-16.4c-9.1,0.1-16.5,7.5-16.4,16.6
				C322.4,640,329.8,647.4,338.9,647.3z"/>
			<radialGradient id="SVGID_85_" cx="128.924" cy="39.5422" r="695.5836" gradientUnits="userSpaceOnUse">
				<stop  offset="0" style="stop-color:#773D94"/>
				<stop  offset="0.3738" style="stop-color:#633481"/>
				<stop  offset="1" style="stop-color:#3D2563"/>
			</radialGradient>
			<path class="st85" d="M386.8,654c9.1-0.1,16.5-7.5,16.4-16.6c-0.1-9.1-7.5-16.5-16.6-16.4c-9.1,0.1-16.5,7.5-16.4,16.6
				C370.3,646.7,377.7,654.1,386.8,654z"/>
			<radialGradient id="SVGID_86_" cx="128.9224" cy="39.5343" r="695.5908" gradientUnits="userSpaceOnUse">
				<stop  offset="0" style="stop-color:#773D94"/>
				<stop  offset="0.3738" style="stop-color:#633481"/>
				<stop  offset="1" style="stop-color:#3D2563"/>
			</radialGradient>
			<path class="st86" d="M435,651.1c9.1-0.1,16.5-7.5,16.4-16.6c-0.1-9.1-7.5-16.5-16.6-16.4c-9.1,0.1-16.5,7.5-16.4,16.6
				C418.4,643.8,425.9,651.2,435,651.1z"/>
			<radialGradient id="SVGID_87_" cx="128.9275" cy="39.5216" r="695.6" gradientUnits="userSpaceOnUse">
				<stop  offset="0" style="stop-color:#773D94"/>
				<stop  offset="0.3738" style="stop-color:#633481"/>
				<stop  offset="1" style="stop-color:#3D2563"/>
			</radialGradient>
			<path class="st87" d="M481.6,638.9c9.1-0.1,16.5-7.5,16.4-16.6c-0.1-9.1-7.5-16.5-16.6-16.4c-9.1,0.1-16.5,7.5-16.4,16.6
				C465.1,631.6,472.5,639,481.6,638.9z"/>
			<radialGradient id="SVGID_88_" cx="128.9268" cy="39.5259" r="695.5934" gradientUnits="userSpaceOnUse">
				<stop  offset="0" style="stop-color:#773D94"/>
				<stop  offset="0.3738" style="stop-color:#633481"/>
				<stop  offset="1" style="stop-color:#3D2563"/>
			</radialGradient>
			<path class="st88" d="M524.9,617.5c9.1-0.1,16.5-7.5,16.4-16.6c-0.1-9.1-7.5-16.5-16.6-16.4c-9.1,0.1-16.5,7.5-16.4,16.6
				C508.3,610.2,515.7,617.6,524.9,617.5z"/>
			<radialGradient id="SVGID_89_" cx="128.9246" cy="39.528" r="695.5929" gradientUnits="userSpaceOnUse">
				<stop  offset="0" style="stop-color:#773D94"/>
				<stop  offset="0.3738" style="stop-color:#633481"/>
				<stop  offset="1" style="stop-color:#3D2563"/>
			</radialGradient>
			<path class="st89" d="M579.3,571.3c-0.1-9.1-7.5-16.5-16.6-16.4c-9.1,0.1-16.5,7.5-16.4,16.6c0.1,9.1,7.5,16.5,16.6,16.4
				C572,587.8,579.4,580.4,579.3,571.3z"/>
			<radialGradient id="SVGID_90_" cx="128.9277" cy="39.5297" r="695.59" gradientUnits="userSpaceOnUse">
				<stop  offset="0" style="stop-color:#773D94"/>
				<stop  offset="0.3738" style="stop-color:#633481"/>
				<stop  offset="1" style="stop-color:#3D2563"/>
			</radialGradient>
			<path class="st90" d="M610.7,534.6c-0.1-9.1-7.5-16.5-16.6-16.4c-9.1,0.1-16.5,7.5-16.4,16.6c0.1,9.1,7.5,16.5,16.6,16.4
				C603.4,551.1,610.7,543.7,610.7,534.6z"/>
			<radialGradient id="SVGID_91_" cx="128.9166" cy="39.5296" r="695.5978" gradientUnits="userSpaceOnUse">
				<stop  offset="0" style="stop-color:#773D94"/>
				<stop  offset="0.3738" style="stop-color:#633481"/>
				<stop  offset="1" style="stop-color:#3D2563"/>
			</radialGradient>
			<path class="st91" d="M634.1,492.3c-0.1-9.1-7.5-16.5-16.6-16.4c-9.1,0.1-16.5,7.5-16.4,16.6c0.1,9.1,7.5,16.5,16.6,16.4
				C626.8,508.9,634.2,501.5,634.1,492.3z"/>
			<radialGradient id="SVGID_92_" cx="128.9305" cy="39.5313" r="695.5859" gradientUnits="userSpaceOnUse">
				<stop  offset="0" style="stop-color:#773D94"/>
				<stop  offset="0.3738" style="stop-color:#633481"/>
				<stop  offset="1" style="stop-color:#3D2563"/>
			</radialGradient>
			<path class="st92" d="M648.6,446.2c-0.1-9.1-7.5-16.5-16.6-16.4c-9.1,0.1-16.5,7.5-16.4,16.6c0.1,9.1,7.5,16.5,16.6,16.4
				C641.3,462.8,648.7,455.3,648.6,446.2z"/>
			<radialGradient id="SVGID_93_" cx="128.9182" cy="39.5315" r="695.5994" gradientUnits="userSpaceOnUse">
				<stop  offset="0" style="stop-color:#773D94"/>
				<stop  offset="0.3738" style="stop-color:#633481"/>
				<stop  offset="1" style="stop-color:#3D2563"/>
			</radialGradient>
			<path class="st93" d="M637.4,414.6c9.1-0.1,16.5-7.5,16.4-16.6c-0.1-9.1-7.5-16.5-16.6-16.4c-9.1,0.1-16.5,7.5-16.4,16.6
				C620.9,407.3,628.3,414.7,637.4,414.6z"/>
			<g>
				<radialGradient id="SVGID_94_" cx="128.9163" cy="39.5099" r="695.616" gradientUnits="userSpaceOnUse">
					<stop  offset="0" style="stop-color:#773D94"/>
					<stop  offset="0.3738" style="stop-color:#633481"/>
					<stop  offset="1" style="stop-color:#3D2563"/>
				</radialGradient>
				<path class="st94" d="M577.7,379.9c-0.7,7.3,4.8,13.8,12.1,14.5c7.4,0.7,13.8-4.8,14.5-12.1c0.7-7.4-4.8-13.8-12.1-14.5
					C584.9,367.1,578.4,372.5,577.7,379.9z"/>
				<radialGradient id="SVGID_95_" cx="128.9382" cy="39.5186" r="695.5916" gradientUnits="userSpaceOnUse">
					<stop  offset="0" style="stop-color:#773D94"/>
					<stop  offset="0.3738" style="stop-color:#633481"/>
					<stop  offset="1" style="stop-color:#3D2563"/>
				</radialGradient>
				<path class="st95" d="M584.3,329.5c-7.3-0.7-13.8,4.8-14.5,12.1c-0.6,7.3,4.8,13.8,12.1,14.5c7.4,0.7,13.8-4.8,14.5-12.1
					C597.1,336.7,591.7,330.2,584.3,329.5z"/>
				<radialGradient id="SVGID_96_" cx="128.8803" cy="39.5516" r="695.6317" gradientUnits="userSpaceOnUse">
					<stop  offset="0" style="stop-color:#773D94"/>
					<stop  offset="0.3738" style="stop-color:#633481"/>
					<stop  offset="1" style="stop-color:#3D2563"/>
				</radialGradient>
				<path class="st96" d="M554.5,305.8c-0.7,7.4,4.8,13.8,12.1,14.5c7.3,0.7,13.8-4.8,14.5-12.1c0.7-7.4-4.8-13.8-12.1-14.5
					C561.7,293,555.2,298.5,554.5,305.8z"/>
				<radialGradient id="SVGID_97_" cx="128.8917" cy="39.5244" r="695.6452" gradientUnits="userSpaceOnUse">
					<stop  offset="0" style="stop-color:#773D94"/>
					<stop  offset="0.3738" style="stop-color:#633481"/>
					<stop  offset="1" style="stop-color:#3D2563"/>
				</radialGradient>
				<path class="st97" d="M546.8,261.7c-7.3-0.7-13.8,4.8-14.5,12.1c-0.7,7.4,4.8,13.8,12.1,14.5c7.3,0.7,13.8-4.8,14.5-12.1
					C559.6,268.8,554.1,262.3,546.8,261.7z"/>
				<radialGradient id="SVGID_98_" cx="128.9005" cy="39.5285" r="695.634" gradientUnits="userSpaceOnUse">
					<stop  offset="0" style="stop-color:#773D94"/>
					<stop  offset="0.3738" style="stop-color:#633481"/>
					<stop  offset="1" style="stop-color:#3D2563"/>
				</radialGradient>
				<path class="st98" d="M516.2,261.3c7.3,0.7,13.8-4.8,14.5-12.1c0.7-7.3-4.8-13.8-12.1-14.5c-7.3-0.7-13.8,4.8-14.5,12.1
					C503.5,254.2,508.9,260.7,516.2,261.3z"/>
				<radialGradient id="SVGID_99_" cx="128.8993" cy="39.5283" r="695.6424" gradientUnits="userSpaceOnUse">
					<stop  offset="0" style="stop-color:#773D94"/>
					<stop  offset="0.3738" style="stop-color:#633481"/>
					<stop  offset="1" style="stop-color:#3D2563"/>
				</radialGradient>
				<path class="st99" d="M485.6,214c-7.3-0.7-13.8,4.8-14.5,12.1c-0.7,7.3,4.8,13.8,12.1,14.5c7.3,0.7,13.8-4.8,14.5-12.1
					C498.4,221.2,493,214.7,485.6,214z"/>
				<radialGradient id="SVGID_100_" cx="128.9018" cy="39.5291" r="695.6438" gradientUnits="userSpaceOnUse">
					<stop  offset="0" style="stop-color:#773D94"/>
					<stop  offset="0.3738" style="stop-color:#633481"/>
					<stop  offset="1" style="stop-color:#3D2563"/>
				</radialGradient>
				<path class="st100" d="M449.1,200.3c-7.3-0.7-13.8,4.8-14.5,12.1c-0.7,7.3,4.8,13.8,12.1,14.5c7.3,0.7,13.8-4.8,14.5-12.1
					C461.9,207.5,456.5,201,449.1,200.3z"/>
				<radialGradient id="SVGID_101_" cx="128.9312" cy="39.5285" r="695.6013" gradientUnits="userSpaceOnUse">
					<stop  offset="0" style="stop-color:#773D94"/>
					<stop  offset="0.3738" style="stop-color:#633481"/>
					<stop  offset="1" style="stop-color:#3D2563"/>
				</radialGradient>
				<path class="st101" d="M396.1,206.1c-0.7,7.4,4.8,13.8,12.1,14.5c7.3,0.7,13.8-4.8,14.5-12.1c0.7-7.3-4.8-13.8-12.1-14.5
					C403.2,193.4,396.8,198.8,396.1,206.1z"/>
				<radialGradient id="SVGID_102_" cx="128.9087" cy="39.5327" r="695.6394" gradientUnits="userSpaceOnUse">
					<stop  offset="0" style="stop-color:#773D94"/>
					<stop  offset="0.3738" style="stop-color:#633481"/>
					<stop  offset="1" style="stop-color:#3D2563"/>
				</radialGradient>
				<path class="st102" d="M357,207.6c-0.7,7.3,4.8,13.8,12.1,14.5c7.3,0.7,13.8-4.8,14.5-12.1c0.7-7.4-4.8-13.8-12.1-14.5
					C364.1,194.8,357.6,200.2,357,207.6z"/>
				<radialGradient id="SVGID_103_" cx="128.9251" cy="39.5292" r="695.6188" gradientUnits="userSpaceOnUse">
					<stop  offset="0" style="stop-color:#773D94"/>
					<stop  offset="0.3738" style="stop-color:#633481"/>
					<stop  offset="1" style="stop-color:#3D2563"/>
				</radialGradient>
				<path class="st103" d="M331.1,231.9c7.3,0.7,13.8-4.8,14.5-12.1c0.7-7.3-4.8-13.8-12.1-14.5c-7.3-0.7-13.8,4.8-14.5,12.1
					C318.3,224.7,323.8,231.2,331.1,231.9z"/>
				<radialGradient id="SVGID_104_" cx="128.9363" cy="39.5271" r="695.6108" gradientUnits="userSpaceOnUse">
					<stop  offset="0" style="stop-color:#773D94"/>
					<stop  offset="0.3738" style="stop-color:#633481"/>
					<stop  offset="1" style="stop-color:#3D2563"/>
				</radialGradient>
				<path class="st104" d="M298.5,222.8c-7.3-0.7-13.8,4.8-14.5,12.1c-0.6,7.4,4.8,13.8,12.1,14.5c7.3,0.7,13.8-4.8,14.5-12.1
					C311.3,230,305.8,223.5,298.5,222.8z"/>
				<radialGradient id="SVGID_105_" cx="128.9273" cy="39.5267" r="695.6276" gradientUnits="userSpaceOnUse">
					<stop  offset="0" style="stop-color:#773D94"/>
					<stop  offset="0.3738" style="stop-color:#633481"/>
					<stop  offset="1" style="stop-color:#3D2563"/>
				</radialGradient>
				<path class="st105" d="M267.7,247c-7.3-0.7-13.8,4.8-14.5,12.1c-0.7,7.3,4.8,13.8,12.1,14.5c7.3,0.7,13.8-4.8,14.5-12.1
					C280.5,254.2,275.1,247.6,267.7,247z"/>
				<radialGradient id="SVGID_106_" cx="128.9364" cy="39.551" r="695.5653" gradientUnits="userSpaceOnUse">
					<stop  offset="0" style="stop-color:#773D94"/>
					<stop  offset="0.3738" style="stop-color:#633481"/>
					<stop  offset="1" style="stop-color:#3D2563"/>
				</radialGradient>
				<path class="st106" d="M228,288.9c-0.6,7.4,4.8,13.8,12.1,14.5c7.3,0.7,13.8-4.8,14.5-12.1c0.7-7.4-4.8-13.8-12.1-14.5
					C235.1,276.1,228.7,281.5,228,288.9z"/>
				<radialGradient id="SVGID_107_" cx="128.9227" cy="39.5223" r="695.6364" gradientUnits="userSpaceOnUse">
					<stop  offset="0" style="stop-color:#773D94"/>
					<stop  offset="0.3738" style="stop-color:#633481"/>
					<stop  offset="1" style="stop-color:#3D2563"/>
				</radialGradient>
				<path class="st107" d="M223.8,311c-7.3-0.7-13.8,4.8-14.5,12.1c-0.7,7.3,4.8,13.8,12.1,14.5c7.3,0.7,13.8-4.8,14.5-12.1
					C236.6,318.1,231.1,311.7,223.8,311z"/>
				<radialGradient id="SVGID_108_" cx="128.9337" cy="39.4865" r="695.6901" gradientUnits="userSpaceOnUse">
					<stop  offset="0" style="stop-color:#773D94"/>
					<stop  offset="0.3738" style="stop-color:#633481"/>
					<stop  offset="1" style="stop-color:#3D2563"/>
				</radialGradient>
				<path class="st108" d="M224.5,362.7c0.6-7.3-4.8-13.8-12.1-14.5c-7.4-0.7-13.8,4.8-14.5,12.1c-0.7,7.3,4.8,13.8,12.1,14.5
					C217.4,375.5,223.8,370.1,224.5,362.7z"/>
				<radialGradient id="SVGID_109_" cx="128.9349" cy="39.5829" r="695.5071" gradientUnits="userSpaceOnUse">
					<stop  offset="0" style="stop-color:#773D94"/>
					<stop  offset="0.3738" style="stop-color:#633481"/>
					<stop  offset="1" style="stop-color:#3D2563"/>
				</radialGradient>
				<path class="st109" d="M194.1,399.1c-0.7,7.3,4.8,13.8,12.1,14.5c7.3,0.6,13.8-4.8,14.5-12.1c0.7-7.4-4.8-13.8-12.1-14.5
					C201.2,386.4,194.7,391.8,194.1,399.1z"/>
				<radialGradient id="SVGID_110_" cx="128.9155" cy="39.5468" r="695.5786" gradientUnits="userSpaceOnUse">
					<stop  offset="0" style="stop-color:#773D94"/>
					<stop  offset="0.3738" style="stop-color:#633481"/>
					<stop  offset="1" style="stop-color:#3D2563"/>
				</radialGradient>
				<path class="st110" d="M210,452.4c7.3,0.6,13.8-4.8,14.5-12.1c0.7-7.4-4.8-13.8-12.1-14.5c-7.3-0.7-13.8,4.8-14.5,12.1
					C197.2,445.3,202.6,451.7,210,452.4z"/>
				<radialGradient id="SVGID_111_" cx="128.9299" cy="39.5502" r="695.5704" gradientUnits="userSpaceOnUse">
					<stop  offset="0" style="stop-color:#773D94"/>
					<stop  offset="0.3738" style="stop-color:#633481"/>
					<stop  offset="1" style="stop-color:#3D2563"/>
				</radialGradient>
				<path class="st111" d="M221.6,489.7c7.3,0.7,13.8-4.8,14.5-12.1c0.7-7.4-4.8-13.8-12.1-14.5c-7.3-0.6-13.8,4.8-14.5,12.1
					C208.8,482.5,214.3,489,221.6,489.7z"/>
				<radialGradient id="SVGID_112_" cx="128.9374" cy="39.551" r="695.5682" gradientUnits="userSpaceOnUse">
					<stop  offset="0" style="stop-color:#773D94"/>
					<stop  offset="0.3738" style="stop-color:#633481"/>
					<stop  offset="1" style="stop-color:#3D2563"/>
				</radialGradient>
				<path class="st112" d="M255,511.8c0.7-7.4-4.8-13.8-12.1-14.5c-7.3-0.6-13.8,4.8-14.5,12.1c-0.6,7.4,4.8,13.8,12.1,14.5
					C247.9,524.5,254.4,519.1,255,511.8z"/>
				<radialGradient id="SVGID_113_" cx="128.9295" cy="39.5" r="695.6341" gradientUnits="userSpaceOnUse">
					<stop  offset="0" style="stop-color:#773D94"/>
					<stop  offset="0.3738" style="stop-color:#633481"/>
					<stop  offset="1" style="stop-color:#3D2563"/>
				</radialGradient>
				<path class="st113" d="M268.4,527c-7.3-0.7-13.8,4.8-14.5,12.1c-0.7,7.4,4.8,13.8,12.1,14.5c7.3,0.7,13.8-4.8,14.5-12.1
					C281.1,534.2,275.7,527.7,268.4,527z"/>
				<radialGradient id="SVGID_114_" cx="128.9166" cy="39.5027" r="695.6332" gradientUnits="userSpaceOnUse">
					<stop  offset="0" style="stop-color:#773D94"/>
					<stop  offset="0.3738" style="stop-color:#633481"/>
					<stop  offset="1" style="stop-color:#3D2563"/>
				</radialGradient>
				<path class="st114" d="M297,577.5c7.3,0.7,13.8-4.8,14.5-12.1c0.7-7.4-4.7-13.8-12.1-14.5c-7.3-0.7-13.8,4.8-14.5,12.1
					C284.3,570.4,289.7,576.9,297,577.5z"/>
				<radialGradient id="SVGID_115_" cx="128.9168" cy="39.5015" r="695.6304" gradientUnits="userSpaceOnUse">
					<stop  offset="0" style="stop-color:#773D94"/>
					<stop  offset="0.3738" style="stop-color:#633481"/>
					<stop  offset="1" style="stop-color:#3D2563"/>
				</radialGradient>
				<path class="st115" d="M332.5,594.2c7.4,0.7,13.8-4.8,14.5-12.1c0.7-7.4-4.8-13.8-12.1-14.5c-7.3-0.7-13.8,4.8-14.5,12.1
					C319.7,587.1,325.2,593.6,332.5,594.2z"/>
				<radialGradient id="SVGID_116_" cx="128.9247" cy="39.569" r="695.5565" gradientUnits="userSpaceOnUse">
					<stop  offset="0" style="stop-color:#773D94"/>
					<stop  offset="0.3738" style="stop-color:#633481"/>
					<stop  offset="1" style="stop-color:#3D2563"/>
				</radialGradient>
				<path class="st116" d="M370.5,603.3c7.3,0.7,13.8-4.8,14.5-12.1c0.7-7.3-4.8-13.8-12.1-14.5c-7.3-0.6-13.8,4.8-14.5,12.1
					C357.7,596.2,363.2,602.7,370.5,603.3z"/>
				<radialGradient id="SVGID_117_" cx="128.9042" cy="39.6172" r="695.5198" gradientUnits="userSpaceOnUse">
					<stop  offset="0" style="stop-color:#773D94"/>
					<stop  offset="0.3738" style="stop-color:#633481"/>
					<stop  offset="1" style="stop-color:#3D2563"/>
				</radialGradient>
				<path class="st117" d="M424,592.7c0.7-7.4-4.8-13.8-12.1-14.5c-7.3-0.6-13.8,4.8-14.5,12.1c-0.7,7.4,4.8,13.8,12.1,14.5
					C416.8,605.4,423.3,600,424,592.7z"/>
				<radialGradient id="SVGID_118_" cx="128.9351" cy="39.4963" r="695.6219" gradientUnits="userSpaceOnUse">
					<stop  offset="0" style="stop-color:#773D94"/>
					<stop  offset="0.3738" style="stop-color:#633481"/>
					<stop  offset="1" style="stop-color:#3D2563"/>
				</radialGradient>
				<path class="st118" d="M462.4,586.4c0.7-7.3-4.8-13.8-12.1-14.5c-7.3-0.7-13.8,4.8-14.5,12.1c-0.6,7.3,4.8,13.8,12.1,14.5
					C455.3,599.2,461.8,593.8,462.4,586.4z"/>
				<radialGradient id="SVGID_119_" cx="128.898" cy="39.5115" r="695.629" gradientUnits="userSpaceOnUse">
					<stop  offset="0" style="stop-color:#773D94"/>
					<stop  offset="0.3738" style="stop-color:#633481"/>
					<stop  offset="1" style="stop-color:#3D2563"/>
				</radialGradient>
				<path class="st119" d="M472.3,570.2c-0.7,7.3,4.8,13.8,12.1,14.5c7.4,0.7,13.8-4.8,14.5-12.1c0.7-7.3-4.8-13.8-12.1-14.5
					C479.4,557.5,472.9,562.9,472.3,570.2z"/>
				<radialGradient id="SVGID_120_" cx="128.9423" cy="39.4973" r="695.6109" gradientUnits="userSpaceOnUse">
					<stop  offset="0" style="stop-color:#773D94"/>
					<stop  offset="0.3738" style="stop-color:#633481"/>
					<stop  offset="1" style="stop-color:#3D2563"/>
				</radialGradient>
				<path class="st120" d="M517.3,563.8c7.3,0.7,13.8-4.8,14.5-12.1c0.7-7.3-4.8-13.8-12.1-14.5c-7.3-0.7-13.8,4.8-14.5,12.1
					C504.5,556.7,510,563.2,517.3,563.8z"/>
				<radialGradient id="SVGID_121_" cx="128.8806" cy="39.5043" r="695.6478" gradientUnits="userSpaceOnUse">
					<stop  offset="0" style="stop-color:#773D94"/>
					<stop  offset="0.3738" style="stop-color:#633481"/>
					<stop  offset="1" style="stop-color:#3D2563"/>
				</radialGradient>
				<path class="st121" d="M559.9,524.7c0.7-7.4-4.8-13.8-12.1-14.5c-7.3-0.7-13.8,4.8-14.5,12.1c-0.7,7.4,4.7,13.8,12.1,14.5
					C552.7,537.4,559.2,532,559.9,524.7z"/>
				<radialGradient id="SVGID_122_" cx="128.8984" cy="39.5543" r="695.5933" gradientUnits="userSpaceOnUse">
					<stop  offset="0" style="stop-color:#773D94"/>
					<stop  offset="0.3738" style="stop-color:#633481"/>
					<stop  offset="1" style="stop-color:#3D2563"/>
				</radialGradient>
				<path class="st122" d="M582,492.5c0.7-7.4-4.7-13.8-12.1-14.5c-7.4-0.7-13.8,4.8-14.5,12.1c-0.7,7.4,4.8,13.8,12.1,14.5
					C574.8,505.3,581.3,499.9,582,492.5z"/>
				<radialGradient id="SVGID_123_" cx="128.8952" cy="39.5093" r="695.6364" gradientUnits="userSpaceOnUse">
					<stop  offset="0" style="stop-color:#773D94"/>
					<stop  offset="0.3738" style="stop-color:#633481"/>
					<stop  offset="1" style="stop-color:#3D2563"/>
				</radialGradient>
				<path class="st123" d="M582.8,468.7c7.3,0.7,13.8-4.8,14.5-12.1c0.7-7.4-4.8-13.8-12.1-14.5c-7.3-0.7-13.8,4.8-14.5,12.1
					C570,461.5,575.4,468,582.8,468.7z"/>
				<radialGradient id="SVGID_124_" cx="128.9795" cy="39.5226" r="695.5519" gradientUnits="userSpaceOnUse">
					<stop  offset="0" style="stop-color:#773D94"/>
					<stop  offset="0.3738" style="stop-color:#633481"/>
					<stop  offset="1" style="stop-color:#3D2563"/>
				</radialGradient>
				<path class="st124" d="M605.2,418.2c0.6-7.4-4.8-13.8-12.1-14.5c-7.4-0.7-13.8,4.8-14.5,12.1c-0.6,7.3,4.8,13.8,12.1,14.5
					C598.1,430.9,604.6,425.5,605.2,418.2z"/>
			</g>
		</g>
	</g>
	<g>
		<g>
			<radialGradient id="SVGID_125_" cx="128.9361" cy="39.5457" r="695.5747" gradientUnits="userSpaceOnUse">
				<stop  offset="0" style="stop-color:#773D94"/>
				<stop  offset="0.3738" style="stop-color:#633481"/>
				<stop  offset="1" style="stop-color:#3D2563"/>
			</radialGradient>
		</g>
	</g>
</g>
</svg>
